<?xml version="1.0" standalone="no"?>
<!DOCTYPE svg PUBLIC "-//W3C//DTD SVG 20010904//EN"
 "http://www.w3.org/TR/2001/REC-SVG-20010904/DTD/svg10.dtd">
<svg version="1.0" xmlns="http://www.w3.org/2000/svg"
 width="1280.000000pt" height="510.000000pt" viewBox="0 0 1280.000000 510.000000"
 preserveAspectRatio="xMidYMid meet">
<metadata>
Created by potrace 1.15, written by Peter Selinger 2001-2017
</metadata>
<g transform="translate(0.000000,510.000000) scale(0.100000,-0.100000)"
fill="#000000" stroke="none">
<path d="M6300 4925 c-14 -8 -35 -14 -47 -15 -15 0 -23 -6 -23 -18 0 -10 -13
-26 -30 -35 -20 -12 -30 -26 -30 -43 0 -19 -5 -24 -25 -24 -32 0 -93 -31 -119
-59 -22 -24 -71 -28 -80 -6 -3 8 -14 15 -25 15 -11 0 -26 -7 -35 -15 -10 -10
-35 -15 -80 -15 -59 0 -66 -2 -66 -20 0 -10 9 -24 19 -30 29 -15 49 -62 39
-90 -21 -56 34 -106 88 -81 55 25 62 -33 10 -85 -37 -37 -78 -44 -110 -21 -16
12 -16 14 -2 26 22 18 20 47 -5 72 -17 17 -29 20 -61 15 -25 -4 -46 -2 -54 5
-7 6 -19 9 -26 6 -7 -2 -23 5 -36 17 -25 23 -81 26 -174 11 -40 -6 -48 -5 -48
7 0 9 -7 21 -15 28 -19 16 -45 -3 -45 -31 0 -14 -7 -19 -25 -19 -27 0 -65 -32
-65 -54 0 -19 27 -46 46 -46 22 0 17 -47 -7 -71 -16 -16 -28 -20 -52 -15 -18
4 -43 8 -56 10 -23 3 -51 30 -51 49 0 5 14 6 31 2 22 -5 36 -2 50 11 26 24 24
49 -7 73 -65 51 -137 6 -159 -99 -4 -19 -14 -43 -23 -52 -16 -20 -57 -24 -67
-8 -3 6 5 10 18 10 32 0 43 27 21 51 -24 27 -79 25 -98 -3 -9 -12 -16 -33 -16
-45 0 -14 -6 -23 -15 -23 -13 0 -15 -73 -15 -593 l0 -594 -47 -2 c-27 -2 -61
-2 -77 -2 -60 1 -66 -16 -66 -178 0 -80 -5 -166 -11 -191 -6 -25 -11 -80 -10
-122 l0 -78 -44 6 c-63 9 -95 -1 -95 -30 0 -19 -7 -24 -37 -30 -50 -8 -3591
-8 -3632 0 -20 4 -31 12 -31 23 0 28 -21 41 -65 41 -70 0 -70 1 -66 -186 3
-153 2 -166 -13 -151 -9 8 -29 18 -46 22 -16 4 -30 8 -30 10 0 2 13 37 30 77
48 121 52 200 11 213 -17 5 -19 13 -14 58 3 32 -2 79 -12 122 -9 39 -19 122
-21 186 -2 63 -5 122 -8 130 -2 8 -7 26 -10 40 -7 32 -50 57 -74 43 -9 -6 -35
-7 -56 -3 -22 3 -51 3 -66 -1 -14 -4 -39 -5 -57 -3 -54 8 -63 -18 -62 -187 0
-80 -5 -163 -10 -185 -6 -22 -11 -72 -11 -112 0 -63 -3 -75 -25 -97 -40 -40
-35 -95 20 -190 24 -43 42 -82 40 -87 -3 -4 -19 -11 -36 -14 -23 -5 -35 -16
-45 -41 l-14 -33 -65 6 -65 6 0 -39 c0 -21 3 -56 6 -76 6 -34 10 -38 43 -44
64 -10 71 -14 71 -39 0 -13 4 -27 10 -30 5 -3 10 -14 10 -23 0 -9 13 -30 29
-47 23 -23 30 -41 32 -75 1 -25 -2 -53 -6 -63 -4 -9 -3 -30 3 -45 6 -16 13
-209 17 -481 5 -414 4 -455 -11 -472 -12 -13 -14 -27 -10 -46 19 -74 18 -92
-8 -147 -14 -30 -31 -58 -36 -61 -6 -3 -10 -26 -10 -51 0 -43 -2 -46 -37 -61
-64 -26 -73 -39 -73 -108 l0 -61 175 -84 c134 -64 181 -81 202 -77 16 3 107
41 203 85 l175 80 -3 68 c-1 37 -8 74 -13 81 -9 9 -7 15 7 20 25 10 3680 10
3690 0 4 -4 0 -21 -10 -38 -14 -23 -16 -41 -11 -83 l7 -54 169 -81 c94 -45
180 -81 192 -81 12 1 103 38 202 83 l180 83 3 42 3 42 1162 -2 1162 -3 3 -41
3 -41 170 -82 c93 -44 180 -81 192 -81 12 1 103 38 202 83 l180 83 3 66 c3 60
1 68 -19 78 -16 9 -18 15 -10 23 9 9 460 13 1789 15 977 2 1805 0 1840 -3 l62
-7 0 -47 c0 -26 6 -54 13 -63 17 -21 329 -168 357 -168 13 0 106 37 207 82
l183 83 0 67 0 67 -55 25 c-51 23 -55 27 -55 59 0 21 -16 65 -40 111 -44 84
-47 100 -26 141 14 28 12 48 -8 74 -15 19 -8 915 7 948 8 17 7 27 -1 35 -7 7
-12 30 -12 51 0 31 8 50 35 83 19 23 35 49 35 58 0 8 5 18 10 21 6 3 10 17 10
29 0 20 7 24 53 32 l52 9 3 77 3 77 -74 -6 -74 -6 -6 31 c-5 26 -13 33 -47 42
-22 6 -40 13 -40 15 0 2 13 37 30 78 16 41 32 99 36 129 6 50 4 57 -17 71 -21
15 -23 25 -25 104 -1 52 -9 104 -18 128 -11 28 -17 80 -18 172 -3 116 -5 135
-24 160 -15 19 -29 27 -45 25 -38 -4 -87 -5 -191 -3 -61 1 -69 -21 -68 -190 0
-79 -4 -162 -10 -184 -5 -22 -10 -77 -10 -122 0 -68 -3 -83 -15 -83 -9 0 -20
-11 -26 -23 -10 -21 -16 -23 -58 -19 -50 4 -88 -16 -77 -43 3 -8 -9 -15 -32
-19 -49 -8 -3590 -8 -3631 0 -21 5 -31 12 -31 25 0 34 -76 53 -120 29 -40 -22
-50 -4 -50 91 0 56 -6 103 -15 126 -10 26 -16 81 -18 169 -2 106 -5 135 -20
157 -22 33 -44 44 -66 31 -9 -5 -32 -7 -51 -4 l-35 5 -3 592 -2 592 -41 3
c-37 3 -43 6 -53 38 -13 41 -47 57 -88 41 -33 -12 -39 -54 -10 -70 15 -9 14
-10 -6 -11 -17 0 -27 9 -38 38 -39 100 -70 132 -129 132 -55 0 -85 -69 -44
-106 17 -15 23 -16 41 -5 15 9 23 10 31 2 15 -15 -12 -41 -44 -45 -13 -2 -35
-7 -49 -10 -52 -14 -113 74 -62 90 32 10 47 21 50 37 5 23 -34 57 -63 57 -18
0 -25 5 -25 19 0 24 -25 45 -45 37 -8 -3 -15 -14 -15 -25 0 -27 -20 -31 -65
-15 -58 21 -116 20 -150 -2 -16 -10 -36 -18 -45 -16 -10 1 -22 -4 -29 -12 -9
-11 -18 -12 -42 -3 -60 23 -116 -38 -79 -86 17 -22 18 -26 4 -31 -63 -24 -148
44 -129 104 5 16 10 19 18 11 17 -17 72 -13 90 7 20 21 22 73 5 90 -9 9 -7 13
5 18 9 3 17 12 17 20 0 7 11 21 25 30 14 9 25 25 25 35 0 17 -8 19 -69 19 -49
0 -72 4 -81 15 -7 8 -20 15 -30 15 -10 0 -23 -7 -30 -15 -21 -25 -50 -17 -95
24 -29 26 -55 41 -84 46 -32 5 -41 11 -41 27 0 11 -13 32 -28 46 -16 15 -31
33 -33 40 -2 7 -20 17 -39 22 -19 5 -44 11 -55 14 -11 3 -31 -1 -45 -9z m-730
-450 c11 -13 8 -15 -18 -15 -46 0 -61 -33 -33 -71 39 -52 18 -57 -41 -9 -32
26 -19 89 22 103 29 10 58 7 70 -8z m1600 -5 c22 -12 39 -58 31 -83 -8 -22
-69 -60 -82 -51 -6 3 -2 12 10 21 38 26 22 93 -22 93 -16 0 -17 3 -7 15 14 17
43 19 70 5z m-1087 -57 c8 -10 19 -30 22 -45 8 -30 1 -33 -42 -22 -18 5 -20
10 -13 30 5 13 7 31 4 39 -8 20 9 19 29 -2z m109 -65 l18 -38 -23 0 c-21 0
-25 6 -30 42 -6 42 2 76 11 48 3 -8 13 -32 24 -52z m408 26 c7 -19 7 -31 -1
-40 -29 -35 -60 3 -34 42 20 30 23 30 35 -2z m-94 -6 c-3 -13 -6 -31 -6 -40 0
-11 -8 -18 -20 -18 -24 0 -24 0 -3 45 19 39 39 48 29 13z m434 12 c0 -5 -4
-10 -9 -10 -6 0 -13 5 -16 10 -3 6 1 10 9 10 9 0 16 -4 16 -10z m-1306 -16
c22 -22 20 -34 -7 -34 -26 0 -54 35 -34 43 20 9 25 8 41 -9z m1420 5 c23 -11
24 -13 9 -35 -9 -14 -25 -24 -38 -24 -22 0 -22 2 -12 35 6 19 12 35 13 35 2 0
14 -5 28 -11z m-563 -919 c235 -23 477 -145 651 -329 127 -134 180 -228 237
-416 l30 -100 10 -860 c9 -753 8 -971 -4 -983 -2 -2 -41 -3 -86 -2 -46 1 -94
1 -106 1 -13 0 -35 0 -50 1 -82 2 -124 -2 -143 -12 -16 -9 -102 -11 -294 -10
-149 1 -383 2 -521 2 -137 0 -297 1 -355 2 -489 9 -550 12 -562 24 -14 14 -14
171 2 1227 7 546 10 597 29 688 31 142 65 217 146 326 228 305 483 435 885
449 19 1 78 -3 131 -8z m5629 -1061 c23 -39 40 -72 38 -73 -1 -1 -22 -9 -45
-18 l-43 -16 0 89 c0 49 2 89 5 89 2 0 23 -32 45 -71z m-11295 -19 c-21 -41
-19 -92 6 -124 19 -24 19 -26 2 -26 -10 0 -28 3 -41 6 -22 6 -23 11 -20 83 3
75 3 76 33 82 17 4 31 7 33 8 1 0 -4 -12 -13 -29z m209 5 c-9 -14 -20 -25 -24
-25 -4 0 -12 11 -18 25 -11 24 -10 25 23 25 l35 0 -16 -25z m200 0 c-9 -14
-18 -25 -19 -25 -1 0 -10 11 -19 25 l-16 25 35 0 35 0 -16 -25z m204 0 c-14
-31 -18 -31 -41 0 l-18 25 35 0 c34 0 35 -1 24 -25z m206 3 c-10 -13 -20 -25
-21 -27 -4 -6 -32 31 -33 42 0 4 16 7 37 7 l36 0 -19 -22z m200 -3 c-17 -27
-28 -25 -44 6 -10 17 -7 19 25 19 l35 0 -16 -25z m200 0 c-9 -14 -18 -25 -19
-25 -1 0 -10 11 -19 25 l-16 25 35 0 35 0 -16 -25z m216 18 c-1 -11 -29 -48
-33 -42 -1 2 -11 14 -21 27 l-19 22 36 0 c21 0 37 -3 37 -7z m193 -18 c-23
-31 -27 -31 -41 0 -11 24 -10 25 24 25 l35 0 -18 -25z m201 0 c-9 -14 -18 -25
-19 -25 -1 0 -10 11 -19 25 l-16 25 35 0 35 0 -16 -25z m206 6 c-16 -31 -27
-33 -44 -6 l-16 25 35 0 c32 0 35 -2 25 -19z m203 -6 c-10 -13 -20 -24 -23
-24 -3 0 -13 11 -23 24 l-18 25 41 0 41 0 -18 -25z m200 1 c-20 -26 -27 -25
-43 5 -10 17 -7 19 25 19 l36 0 -18 -24z m201 -1 c-9 -14 -18 -25 -19 -25 -1
0 -10 11 -19 25 l-16 25 35 0 35 0 -16 -25z m204 0 c-14 -31 -18 -31 -41 0
l-18 25 35 0 c34 0 35 -1 24 -25z m206 3 c-10 -13 -20 -25 -21 -27 -4 -6 -32
31 -33 42 0 4 16 7 37 7 l36 0 -19 -22z m200 -3 c-9 -14 -18 -25 -19 -25 -1 0
-10 11 -19 25 l-16 25 35 0 35 0 -16 -25z m200 0 c-9 -14 -18 -25 -19 -25 -1
0 -10 11 -19 25 l-16 25 35 0 35 0 -16 -25z m3842 -132 c-8 -9 -56 7 -56 18 0
6 11 35 25 65 14 30 26 60 27 67 1 7 4 -23 5 -67 2 -43 2 -81 -1 -83z m180
135 c-24 -34 -21 -107 6 -135 l21 -23 -25 0 c-54 0 -58 6 -58 90 l0 79 33 4
c17 2 33 5 35 5 2 1 -4 -8 -12 -20z m208 0 c-10 -13 -20 -25 -21 -27 -4 -6
-32 31 -33 42 0 4 16 7 37 7 l36 0 -19 -22z m200 -3 c-9 -14 -20 -25 -24 -25
-4 0 -12 11 -18 25 -11 24 -10 25 23 25 l35 0 -16 -25z m200 0 c-9 -14 -18
-25 -19 -25 -1 0 -10 11 -19 25 l-16 25 35 0 35 0 -16 -25z m216 18 c-1 -11
-29 -48 -33 -42 -1 2 -11 14 -21 27 l-19 22 36 0 c21 0 37 -3 37 -7z m193 -18
c-23 -31 -27 -31 -41 0 -11 24 -10 25 24 25 l35 0 -18 -25z m201 0 c-9 -14
-18 -25 -19 -25 -1 0 -10 11 -19 25 l-16 25 35 0 35 0 -16 -25z m206 6 c-16
-31 -27 -33 -44 -6 l-16 25 35 0 c32 0 35 -2 25 -19z m203 -6 c-10 -13 -20
-24 -23 -24 -3 0 -13 11 -23 24 l-18 25 41 0 41 0 -18 -25z m201 0 c-17 -27
-28 -25 -44 6 -10 17 -7 19 25 19 l35 0 -16 -25z m200 0 c-9 -14 -18 -25 -19
-25 -1 0 -10 11 -19 25 l-16 25 35 0 35 0 -16 -25z m206 6 c-16 -30 -23 -31
-43 -5 l-18 24 36 0 c32 0 35 -2 25 -19z m204 -3 c-10 -13 -20 -25 -21 -27 -4
-6 -32 31 -33 42 0 4 16 7 37 7 l36 0 -19 -22z m200 -3 c-9 -14 -18 -25 -19
-25 -1 0 -10 11 -19 25 l-16 25 35 0 35 0 -16 -25z m200 0 c-9 -14 -18 -25
-19 -25 -1 0 -10 11 -19 25 l-16 25 35 0 35 0 -16 -25z m216 18 c-1 -11 -29
-48 -33 -42 -1 2 -11 14 -21 27 l-19 22 36 0 c21 0 37 -3 37 -7z m193 -17
c-20 -26 -27 -25 -43 5 -10 17 -7 19 25 19 l36 0 -18 -24z m201 -1 c-9 -14
-18 -25 -19 -25 -1 0 -10 11 -19 25 l-16 25 35 0 35 0 -16 -25z m-7264 -69 l0
-83 -29 1 -28 1 18 24 c23 29 25 88 3 119 -14 21 -14 22 10 22 26 0 26 -1 26
-84z m7470 2 c0 -45 -3 -79 -6 -75 -3 3 -18 1 -32 -4 -25 -10 -26 -9 -9 9 26
29 32 83 13 120 -16 32 -16 32 9 32 25 0 25 -1 25 -82z m-10991 54 c30 -23 31
-76 3 -104 -26 -26 -75 -28 -102 -3 -29 26 -27 89 2 109 30 21 71 20 97 -2z
m210 -8 c27 -34 26 -57 -2 -90 -47 -54 -127 -24 -127 47 0 66 88 95 129 43z
m198 4 c58 -54 -4 -148 -78 -118 -25 11 -49 46 -49 74 0 7 9 25 21 40 26 33
73 35 106 4z m201 6 c29 -20 31 -83 2 -109 -47 -42 -123 -7 -123 56 0 58 70
89 121 53z m211 -10 c27 -34 26 -57 -2 -90 -48 -56 -127 -24 -127 52 0 63 89
89 129 38z m200 0 c49 -62 5 -123 -81 -116 -19 2 -48 50 -48 78 0 10 10 28 22
41 30 33 80 31 107 -3z m201 6 c11 -11 20 -33 20 -49 0 -71 -80 -101 -127 -47
-28 33 -29 56 -2 90 26 33 79 36 109 6z m198 4 c29 -20 31 -83 2 -109 -48 -44
-120 -10 -120 56 0 43 27 69 70 69 14 0 36 -7 48 -16z m211 -10 c12 -15 21
-33 21 -40 0 -29 -24 -64 -52 -73 -53 -19 -98 15 -98 73 0 63 89 90 129 40z
m198 4 c58 -54 -4 -148 -78 -118 -26 11 -49 47 -49 77 0 9 10 27 22 40 28 30
74 30 105 1z m203 2 c43 -43 12 -123 -48 -123 -18 0 -41 8 -52 18 -25 22 -27
81 -3 107 22 24 77 24 103 -2z m201 2 c29 -24 30 -75 1 -104 -46 -46 -122 -13
-122 53 0 60 72 90 121 51z m208 -8 c24 -30 26 -43 10 -77 -33 -72 -139 -45
-139 35 0 63 89 92 129 42z m201 4 c42 -46 12 -121 -49 -121 -62 0 -98 68 -61
116 28 35 80 37 110 5z m198 6 c29 -20 31 -83 2 -109 -48 -44 -120 -10 -120
56 0 43 27 69 70 69 14 0 36 -7 48 -16z m211 -10 c27 -34 26 -57 -2 -90 -47
-54 -127 -24 -127 47 0 66 88 95 129 43z m198 4 c55 -52 2 -141 -73 -122 -24
6 -54 49 -54 77 0 8 9 26 21 41 26 33 73 35 106 4z m203 2 c43 -43 12 -123
-49 -123 -63 0 -98 76 -56 123 24 26 79 26 105 0z m4018 4 c29 -20 31 -83 2
-109 -46 -42 -120 -9 -122 53 -2 62 66 94 120 56z m207 -9 c31 -30 32 -56 2
-91 -47 -54 -127 -24 -127 47 0 64 78 92 125 44z m204 -1 c25 -32 26 -56 5
-88 -31 -48 -101 -41 -123 12 -23 54 8 102 64 102 24 0 39 -7 54 -26z m199 6
c29 -27 29 -80 2 -105 -31 -28 -79 -24 -107 9 -28 33 -29 56 -2 90 26 33 75
35 107 6z m200 3 c34 -29 37 -66 9 -98 -28 -34 -76 -38 -107 -10 -29 26 -27
89 2 109 30 21 71 20 96 -1z m211 -9 c24 -31 26 -43 10 -78 -23 -49 -104 -53
-128 -7 -43 80 63 155 118 85z m198 4 c58 -54 -4 -148 -78 -118 -26 11 -49 47
-49 77 0 9 10 27 22 40 28 30 74 30 105 1z m203 2 c45 -45 13 -123 -50 -123
-43 0 -70 28 -70 74 0 28 6 42 22 53 31 22 74 20 98 -4z m205 0 c42 -47 7
-123 -56 -123 -61 0 -92 80 -49 123 26 26 81 26 105 0z m202 -2 c38 -35 29
-89 -18 -114 -53 -27 -109 8 -109 68 0 60 81 90 127 46z m200 0 c38 -36 26
-100 -22 -118 -33 -13 -80 5 -94 36 -16 35 -14 47 10 78 26 33 73 35 106 4z
m201 6 c29 -20 31 -83 2 -109 -48 -44 -120 -10 -120 56 0 43 27 69 70 69 14 0
36 -7 48 -16z m207 -9 c31 -30 32 -56 2 -91 -47 -54 -127 -24 -127 47 0 64 78
92 125 44z m204 -1 c25 -32 26 -62 3 -90 -35 -44 -93 -40 -117 7 -20 37 -19
51 6 83 15 19 30 26 54 26 24 0 39 -7 54 -26z m201 6 c26 -26 26 -81 0 -105
-46 -42 -123 -7 -123 54 0 64 78 96 123 51z m201 2 c49 -40 15 -125 -50 -125
-44 0 -71 28 -71 74 0 28 6 42 22 53 30 21 71 20 99 -2z m208 -8 c24 -31 26
-43 10 -78 -23 -49 -104 -53 -128 -7 -43 80 63 155 118 85z m198 4 c58 -54 -4
-148 -78 -118 -25 11 -49 46 -49 74 0 7 9 25 21 40 26 33 73 35 106 4z m-7239
-59 c22 -38 22 -41 5 -45 -10 -3 -22 -5 -27 -5 -9 1 -15 91 -6 91 3 0 15 -18
28 -41z m-3604 -56 l19 -23 -43 0 -43 0 23 25 c13 14 24 24 24 22 1 -1 10 -12
20 -24z m214 -12 c13 -8 6 -10 -30 -11 l-46 0 21 24 c18 20 24 22 30 11 4 -8
15 -19 25 -24z m202 2 c11 -11 6 -13 -28 -13 l-43 0 18 24 c14 19 21 22 28 13
6 -7 17 -18 25 -24z m193 12 l18 -25 -41 0 -41 0 18 25 c10 13 20 24 23 24 3
0 13 -11 23 -24z m201 -2 l19 -23 -41 0 -40 0 21 24 c12 14 22 24 22 23 0 -1
9 -12 19 -24z m215 -10 c12 -11 7 -13 -31 -13 l-46 0 21 24 c17 19 25 22 32
13 6 -7 16 -18 24 -24z m191 12 l23 -25 -42 0 -42 0 18 25 c10 13 18 25 19 25
0 0 11 -11 24 -25z m204 -2 l19 -23 -43 0 -43 0 23 25 c13 14 24 24 24 22 1
-1 10 -12 20 -24z m200 2 l16 -25 -39 0 -39 0 21 25 c12 13 23 25 23 25 1 0 9
-11 18 -25z m206 0 l23 -25 -42 0 -42 0 18 25 c10 13 18 25 19 25 0 0 11 -11
24 -25z m200 0 l23 -25 -42 0 -42 0 18 25 c10 13 18 25 19 25 0 0 11 -11 24
-25z m204 -2 l19 -23 -43 0 -43 0 23 25 c13 14 24 24 24 22 1 -1 10 -12 20
-24z m214 -12 c13 -8 6 -10 -30 -11 l-47 0 22 23 c16 16 24 19 30 10 4 -7 15
-17 25 -22z m202 2 c11 -11 6 -13 -28 -13 l-43 0 18 24 c14 19 21 22 28 13 6
-7 17 -18 25 -24z m193 12 l18 -25 -41 0 -41 0 18 25 c10 13 20 24 23 24 3 0
13 -11 23 -24z m201 -2 l19 -23 -41 0 -40 0 21 24 c12 14 22 24 22 23 0 -1 9
-12 19 -24z m218 -15 c8 -4 -7 -8 -34 -8 l-47 0 22 23 c19 21 24 22 34 8 7 -8
19 -18 25 -23z m4211 17 l18 -25 -41 0 -41 0 18 25 c10 13 20 24 23 24 3 0 13
-11 23 -24z m201 -2 l19 -23 -41 0 -40 0 21 24 c12 14 22 24 22 23 0 -1 9 -12
19 -24z m218 -15 c8 -4 -7 -8 -34 -8 l-47 0 22 23 c19 21 24 22 34 8 7 -8 19
-18 25 -23z m188 17 l23 -25 -42 0 -42 0 18 25 c10 13 18 25 19 25 0 0 11 -11
24 -25z m204 -2 l19 -23 -43 0 -43 0 23 25 c13 14 24 24 24 22 1 -1 10 -12 20
-24z m200 2 l16 -25 -39 0 -39 0 21 25 c12 13 23 25 23 25 1 0 9 -11 18 -25z
m206 0 l23 -25 -42 0 -42 0 18 25 c10 13 18 25 19 25 0 0 11 -11 24 -25z m200
0 l23 -25 -42 0 -42 0 18 25 c10 13 18 25 19 25 0 0 11 -11 24 -25z m204 -2
l19 -23 -43 0 -43 0 23 25 c13 14 24 24 24 22 1 -1 10 -12 20 -24z m215 -10
c12 -11 7 -13 -31 -13 l-46 0 21 24 c17 19 25 22 32 13 6 -7 16 -18 24 -24z
m191 12 l23 -25 -42 0 -42 0 18 25 c10 13 18 25 19 25 0 0 11 -11 24 -25z
m203 0 l18 -25 -41 0 -41 0 18 25 c10 13 20 24 23 24 3 0 13 -11 23 -24z m201
-2 l19 -23 -41 0 -40 0 21 24 c12 14 22 24 22 23 0 -1 9 -12 19 -24z m215 -10
c12 -11 7 -13 -28 -13 l-42 0 18 24 c13 18 21 21 28 13 6 -7 16 -18 24 -24z
m191 12 l23 -25 -42 0 -42 0 18 25 c10 13 18 25 19 25 0 0 11 -11 24 -25z
m204 -2 l19 -23 -43 0 -43 0 23 25 c13 14 24 24 24 22 1 -1 10 -12 20 -24z
m215 -10 c12 -11 7 -13 -31 -13 l-46 0 21 24 c17 19 25 22 32 13 6 -7 16 -18
24 -24z m-10835 -119 c3 -9 6 -378 6 -820 0 -711 -2 -805 -15 -810 -9 -4 -45
-3 -80 1 l-65 7 0 761 c0 751 0 762 20 775 13 8 20 23 20 45 0 18 5 38 12 45
18 18 95 15 102 -4z m236 -809 l0 -825 -90 0 -90 0 0 825 0 825 90 0 90 0 0
-825z m245 0 l0 -820 -92 -3 -93 -3 0 826 0 826 93 -3 92 -3 0 -820z m240 803
c3 -13 4 -383 3 -823 l-3 -800 -92 -3 -93 -3 0 826 0 825 90 0 c85 0 90 -1 95
-22z m235 -803 l0 -826 -92 3 c-51 2 -92 6 -90 11 1 4 2 374 2 822 l0 815 90
0 90 0 0 -825z m240 0 l0 -826 -92 3 -93 3 -3 800 c-1 440 0 810 3 823 5 21
10 22 95 22 l90 0 0 -825z m240 0 l0 -826 -92 3 -93 3 -3 823 -2 822 95 0 95
0 0 -825z m240 0 l0 -826 -92 3 -93 3 -3 800 c-1 440 0 810 3 823 5 21 10 22
95 22 l90 0 0 -825z m240 0 l0 -826 -92 3 -93 3 -3 823 -2 822 95 0 95 0 0
-825z m240 0 l0 -826 -92 3 -93 3 -3 823 -2 822 95 0 95 0 0 -825z m240 0 l0
-826 -92 3 -93 3 -3 823 -2 822 95 0 95 0 0 -825z m240 0 l0 -826 -92 3 -93 3
-3 823 -2 822 95 0 95 0 0 -825z m240 0 l0 -825 -95 0 -95 0 0 825 0 825 95 0
95 0 0 -825z m240 0 l0 -826 -92 3 -93 3 -3 823 -2 822 95 0 95 0 0 -825z
m240 0 l0 -825 -95 0 -95 0 0 825 0 825 95 0 95 0 0 -825z m150 788 c0 -43 7
-57 33 -66 16 -6 17 -52 17 -770 l0 -764 -46 -7 c-26 -3 -60 -6 -75 -6 l-29 0
0 825 0 825 50 0 50 0 0 -37z m3960 -788 l0 -825 -29 0 c-15 0 -49 3 -75 6
l-46 7 0 763 c0 729 1 764 18 764 27 0 42 20 42 55 0 40 16 55 57 55 l33 0 0
-825z m240 0 l0 -825 -90 0 -90 0 0 825 0 825 90 0 90 0 0 -825z m240 0 l0
-826 -92 3 -93 3 -3 823 -2 822 95 0 95 0 0 -825z m240 0 l0 -826 -92 3 -93 3
-3 823 -2 822 95 0 95 0 0 -825z m240 0 l0 -826 -92 3 -93 3 -3 823 -2 822 95
0 95 0 0 -825z m240 0 l0 -826 -92 3 -93 3 -3 823 -2 822 95 0 95 0 0 -825z
m240 0 l0 -826 -92 3 -93 3 -3 823 -2 822 95 0 95 0 0 -825z m240 0 l0 -826
-92 3 -93 3 -3 823 -2 822 95 0 95 0 0 -825z m240 0 l0 -826 -92 3 -93 3 -3
823 -2 822 95 0 95 0 0 -825z m240 0 l0 -826 -92 3 -93 3 -3 823 -2 822 95 0
95 0 0 -825z m240 0 l0 -825 -95 0 -95 0 0 825 0 825 95 0 95 0 0 -825z m240
0 l0 -826 -92 3 -93 3 -3 823 -2 822 95 0 95 0 0 -825z m240 0 l0 -825 -95 0
-95 0 0 825 0 825 95 0 95 0 0 -825z m240 0 l0 -825 -95 0 -95 0 0 825 0 825
95 0 95 0 0 -825z m240 0 l0 -825 -95 0 -95 0 0 825 0 825 95 0 95 0 0 -825z
m156 819 c12 -3 27 -17 33 -30 8 -18 11 -252 11 -813 l0 -788 -46 -7 c-26 -3
-60 -6 -75 -6 l-29 0 0 825 0 825 43 0 c23 0 52 -3 63 -6z m224 -264 c0 -25
-5 -51 -12 -58 -9 -9 -8 -18 2 -39 9 -21 14 -142 20 -478 7 -440 7 -451 -13
-479 -18 -27 -19 -30 -3 -63 9 -18 16 -40 16 -48 0 -21 -52 -135 -61 -135 -5
0 -9 311 -9 702 l0 702 30 -29 c25 -24 30 -37 30 -75z m-11481 -647 c-1 -673
-1 -678 -20 -638 -20 43 -25 100 -9 110 15 9 12 47 -5 69 -13 17 -15 91 -15
477 0 295 4 460 10 464 14 8 13 52 -1 61 -15 9 -4 78 17 110 9 13 18 24 20 24
2 0 4 -305 3 -677z m3979 582 c-2 -27 -7 -50 -13 -52 -6 -2 -9 20 -7 58 3 39
7 58 14 51 5 -5 8 -31 6 -57z m3492 5 c0 -27 -4 -50 -10 -50 -11 0 -14 83 -3
93 12 12 13 8 13 -43z m-3479 -568 c7 -443 6 -458 -13 -485 -18 -25 -18 -29
-4 -59 9 -17 16 -39 16 -48 0 -16 -27 -90 -33 -90 -1 0 -2 263 -2 585 0 514 2
582 15 570 12 -13 15 -90 21 -473z m3479 -4 c0 -386 -2 -479 -12 -469 -10 9
-12 112 -10 464 3 417 6 487 18 487 2 0 4 -217 4 -482z m0 -589 c0 -24 -4 -38
-10 -34 -17 10 -11 75 7 75 2 0 3 -18 3 -41z"/>
</g>
</svg>
