<?xml version="1.0" standalone="no"?>
<!DOCTYPE svg PUBLIC "-//W3C//DTD SVG 20010904//EN"
 "http://www.w3.org/TR/2001/REC-SVG-20010904/DTD/svg10.dtd">
<svg version="1.0" xmlns="http://www.w3.org/2000/svg"
 width="1280.000000pt" height="640.000000pt" viewBox="0 0 1280.000000 640.000000"
 preserveAspectRatio="xMidYMid meet">
<metadata>
Created by potrace 1.15, written by Peter Selinger 2001-2017
</metadata>
<g transform="translate(0.000000,640.000000) scale(0.100000,-0.100000)"
fill="#000000" stroke="none">
<path d="M1826 4646 c-5 -69 -11 -104 -17 -95 -5 8 -9 28 -9 46 0 17 -3 34 -7
36 -11 7 -5 -418 7 -548 6 -60 22 -166 36 -234 13 -68 22 -131 19 -141 -5 -16
-11 -16 -78 -4 -222 38 -636 50 -930 25 l-148 -12 -134 31 c-156 35 -370 70
-436 70 -54 0 -59 -7 -59 -84 l0 -53 73 -7 c39 -3 94 -9 122 -13 l50 -6 -85
-27 c-47 -14 -101 -35 -120 -44 -37 -19 -80 -55 -80 -66 0 -4 25 -24 55 -44
l55 -36 42 21 c57 29 241 74 386 95 112 16 124 16 184 0 529 -138 843 -206
947 -206 17 0 33 -5 36 -10 8 -13 -68 -156 -104 -195 -24 -25 -228 -274 -280
-340 -8 -11 13 7 48 40 71 67 70 60 -3 -35 l-49 -65 71 69 c39 39 74 67 78 63
4 -3 -26 -50 -67 -104 -103 -135 -104 -142 -5 -38 81 86 108 104 67 47 -10
-15 -24 -38 -31 -52 -11 -22 -11 -23 2 -10 8 8 47 53 85 100 39 47 100 119
136 160 74 84 146 198 182 286 l24 59 53 3 53 2 23 -54 c31 -72 55 -96 96 -96
53 0 70 27 62 100 -6 49 -4 60 8 60 10 0 17 -15 21 -47 10 -73 24 -111 48
-128 29 -20 49 -19 82 7 26 20 27 23 20 86 -4 36 -10 72 -13 80 -3 10 -1 13 5
9 6 -4 14 -41 18 -82 9 -90 27 -118 75 -118 51 0 72 33 68 105 -2 36 1 57 7
55 6 -2 11 -17 13 -33 7 -77 13 -94 42 -109 32 -16 54 -12 86 17 l22 19 10
-63 c6 -35 14 -101 17 -148 4 -47 22 -186 40 -310 29 -201 33 -218 36 -160 l4
65 27 -105 27 -105 -4 70 c-3 39 -8 96 -11 128 -10 89 9 68 35 -39 13 -52 25
-94 27 -92 2 2 -1 33 -6 68 -14 98 -10 123 8 53 10 -34 19 -64 22 -67 3 -2 -7
80 -22 182 -14 103 -33 255 -42 337 -8 83 -22 173 -31 200 -24 79 -29 75 109
75 104 0 270 11 781 54 40 3 63 -2 115 -26 143 -66 250 -107 345 -133 95 -26
107 -27 240 -21 77 4 246 17 375 30 232 23 236 23 305 5 328 -88 556 -142 675
-163 78 -13 145 -27 148 -31 8 -7 -60 -143 -86 -171 -10 -10 -77 -92 -150
-181 -73 -89 -137 -165 -143 -168 -5 -4 -9 -11 -9 -18 0 -6 28 15 62 48 l61
60 -53 -70 c-80 -105 -80 -106 3 -25 42 41 77 69 77 62 0 -7 -34 -59 -76 -115
l-77 -102 83 80 83 80 -32 -57 c-18 -32 -31 -58 -28 -58 2 0 26 28 53 63 27
34 87 105 133 157 104 118 190 247 226 339 l28 71 48 0 49 0 35 -70 c46 -92
91 -114 136 -69 19 19 21 29 16 79 -5 44 -3 59 7 63 14 6 26 -20 26 -58 0 -34
20 -94 36 -110 20 -20 64 -19 93 1 22 16 23 21 17 98 -4 60 -3 71 4 41 5 -22
9 -56 9 -76 2 -75 74 -116 121 -69 16 16 20 33 20 81 0 71 15 71 22 -1 3 -28
13 -59 23 -70 23 -26 65 -26 98 0 l26 20 10 -52 c5 -29 13 -93 17 -141 3 -48
21 -190 39 -315 25 -167 34 -211 34 -167 2 74 12 59 36 -50 18 -81 39 -139 30
-80 -11 71 -25 228 -20 233 9 9 13 -1 39 -98 17 -64 24 -80 21 -50 -2 25 -7
70 -10 100 l-5 55 19 -68 c18 -66 39 -108 27 -57 -10 43 -55 379 -71 525 -8
77 -19 156 -25 175 -5 19 -10 38 -10 41 0 3 159 9 353 13 193 3 435 12 537 20
l185 13 115 -52 c64 -29 155 -67 204 -84 113 -40 182 -40 570 -4 225 21 298
24 335 16 25 -6 170 -42 321 -81 151 -38 334 -80 405 -92 72 -12 131 -23 132
-24 2 -1 -12 -34 -31 -72 -20 -41 -75 -120 -136 -194 -57 -69 -133 -161 -169
-205 l-65 -80 56 53 c31 28 60 52 63 52 3 0 -19 -31 -50 -69 -30 -39 -55 -73
-55 -78 0 -4 31 24 70 62 38 38 71 67 74 64 2 -2 -23 -40 -56 -84 -102 -136
-104 -143 -18 -60 l83 80 -27 -50 c-32 -58 -33 -59 99 95 190 221 236 287 284
407 19 47 33 68 44 67 10 0 33 -1 52 -2 33 -2 37 -6 64 -66 16 -35 38 -69 49
-75 33 -17 70 -13 92 12 18 18 20 29 15 66 -4 24 -9 50 -12 57 -3 9 2 14 16
14 17 0 21 -6 21 -31 0 -46 20 -116 39 -132 35 -32 97 -21 107 19 7 28 24 32
24 6 0 -27 34 -55 67 -54 17 0 35 10 51 27 20 24 22 34 16 81 -4 35 -3 54 4
54 6 0 13 -24 17 -52 10 -74 27 -98 70 -98 21 0 43 8 55 20 19 19 19 19 29
-18 5 -20 14 -91 21 -157 13 -140 68 -536 75 -544 3 -2 5 25 6 60 l1 64 26
-114 c14 -62 28 -109 29 -105 2 5 -3 66 -10 137 -18 171 -7 170 37 -3 17 -64
19 -43 6 55 -5 38 -7 71 -6 73 2 2 11 -29 21 -68 10 -39 19 -69 22 -67 2 2 -8
83 -21 178 -14 96 -34 253 -45 349 -11 96 -26 193 -34 215 l-15 41 212 12
c116 7 306 21 421 31 361 33 315 35 440 -22 194 -88 324 -127 425 -127 l40 0
0 68 0 68 -90 13 c-49 7 -92 17 -96 22 -3 6 4 8 18 5 12 -3 46 -8 73 -11 28
-3 57 -8 66 -11 13 -3 18 9 27 63 8 47 8 69 1 74 -26 16 -208 32 -374 34
l-180 2 -86 36 c-47 20 -126 49 -175 64 -85 26 -98 27 -299 27 -181 0 -232 -4
-368 -27 -87 -15 -162 -27 -166 -27 -9 0 -35 94 -48 174 -10 62 -47 95 -90 80
-47 -16 -55 -45 -47 -176 5 -100 4 -118 -8 -118 -11 0 -17 17 -21 63 -26 262
-34 287 -92 287 -18 0 -40 -7 -49 -15 -18 -19 -26 -19 -26 -1 0 19 -39 46 -65
46 -12 0 -31 -9 -43 -20 -15 -14 -22 -17 -22 -7 0 24 -40 57 -69 57 -50 0 -72
-37 -78 -129 -3 -45 -9 -81 -13 -81 -7 0 -32 103 -56 235 -19 106 -37 453 -31
585 3 63 2 97 -3 85 -5 -11 -9 -38 -10 -60 -4 -94 -18 -87 -20 10 l-3 100 -12
-100 c-7 -55 -13 -102 -15 -105 -6 -11 -18 101 -21 185 l-2 90 -9 -65 c-5 -36
-12 -85 -15 -110 l-6 -45 -13 65 c-11 60 -12 47 -13 -157 -1 -245 16 -438 54
-607 30 -135 28 -140 -49 -132 -225 23 -371 26 -606 14 -331 -17 -334 -17
-510 25 -244 57 -356 69 -691 72 l-295 3 -113 51 c-230 104 -359 134 -566 133
-135 0 -288 -16 -464 -47 -47 -8 -86 -14 -87 -12 -10 11 -44 138 -44 167 0 77
-71 117 -118 67 -20 -21 -22 -34 -22 -150 0 -130 -12 -168 -24 -74 -22 182
-36 270 -46 282 -21 25 -61 28 -92 5 -15 -11 -28 -16 -28 -10 0 20 -40 50 -67
50 -15 0 -37 -10 -50 -22 -23 -21 -23 -21 -23 -1 0 25 -30 53 -57 53 -57 0
-73 -25 -88 -135 l-11 -80 -22 92 c-42 175 -53 280 -59 563 -3 151 -7 271 -9
265 -1 -5 -6 -41 -11 -80 l-8 -70 -5 100 -5 100 -8 -60 c-4 -33 -10 -79 -13
-102 -10 -83 -24 -43 -24 70 0 61 -5 119 -10 127 -7 11 -10 -1 -11 -40 0 -30
-4 -80 -8 -110 l-7 -55 -8 50 c-4 28 -9 55 -11 60 -2 6 -4 -87 -4 -205 -1
-242 11 -399 41 -545 11 -55 23 -120 25 -144 l5 -43 -43 5 c-209 25 -404 30
-649 17 -335 -18 -303 -20 -480 22 -201 48 -341 68 -476 68 -60 0 -140 5 -179
11 -38 5 -146 10 -240 10 l-170 0 -110 44 c-199 80 -254 90 -465 89 -142 0
-218 -6 -325 -23 -238 -38 -209 -39 -229 9 -9 24 -21 74 -26 113 -5 39 -15 77
-24 85 -21 21 -71 19 -96 -3 -18 -16 -20 -31 -20 -147 0 -79 -4 -128 -10 -128
-5 0 -10 3 -10 8 0 4 -7 52 -15 107 -8 55 -15 119 -15 141 0 56 -30 94 -75 94
-18 0 -38 -6 -44 -14 -10 -11 -17 -9 -41 15 -34 34 -58 36 -93 9 l-25 -20 -6
25 c-13 50 -92 58 -118 12 -7 -12 -17 -60 -23 -107 l-11 -85 -27 110 c-41 173
-49 251 -56 545 -5 216 -8 260 -14 205 -12 -102 -15 -101 -17 5 -2 111 -15 99
-25 -22 -4 -43 -11 -78 -16 -78 -5 0 -9 35 -10 78 -1 42 -4 104 -8 137 -7 59
-7 59 -15 -49z m499 -1020 c3 -39 9 -79 11 -88 3 -10 1 -18 -4 -18 -5 0 -13
30 -16 68 -4 37 -9 83 -12 102 -4 25 -3 31 4 21 6 -8 13 -46 17 -85z m-155 -7
c0 -11 -4 -17 -10 -14 -5 3 -10 15 -10 26 0 11 5 17 10 14 6 -3 10 -15 10 -26z
m-480 -44 c63 -9 116 -18 118 -20 2 -2 -1 -20 -8 -39 -11 -35 -12 -35 -58 -30
-110 13 -346 56 -457 84 l-120 30 205 -4 c113 -3 257 -12 320 -21z m1724 -102
c23 -13 -227 -33 -469 -38 -179 -4 -180 -4 -110 10 135 29 299 44 431 41 72
-2 139 -8 148 -13z m3095 -277 c1 -13 -2 -17 -9 -10 -5 5 -12 52 -15 104 l-4
95 13 -85 c8 -47 15 -94 15 -104z m-2284 138 c33 -4 105 -6 160 -5 124 2 201
-15 90 -21 -137 -6 -296 10 -335 34 -12 7 -11 8 5 4 11 -2 47 -8 80 -12z
m2112 -51 c-3 -10 -5 -2 -5 17 0 19 2 27 5 18 2 -10 2 -26 0 -35z m-572 -43
c72 -5 149 -12 173 -16 41 -6 43 -8 37 -33 -4 -14 -10 -30 -14 -34 -13 -13
-459 68 -479 87 -8 9 133 7 283 -4z m1821 -101 c32 -5 91 -20 129 -32 l70 -22
-65 -7 c-112 -11 -672 -20 -739 -11 -35 4 -66 13 -68 19 -3 9 41 17 317 58 58
8 301 5 356 -5z m3142 -299 l0 -35 -9 30 c-5 17 -11 68 -14 115 l-4 85 14 -80
c7 -44 13 -96 13 -115z m-171 78 c-2 -13 -4 -3 -4 22 0 25 2 35 4 23 2 -13 2
-33 0 -45z m-1852 33 l60 -7 -99 -8 c-113 -10 -187 -4 -236 17 -33 15 -28 15
90 10 69 -3 152 -9 185 -12z m1397 -92 c57 -6 104 -12 105 -13 2 -1 -3 -17
-10 -35 l-12 -33 -55 7 c-63 7 -403 74 -409 81 -9 9 283 3 381 -7z m1716 -96
c44 -17 -540 -57 -643 -43 -33 4 -18 8 85 24 69 11 154 23 190 27 85 10 338 4
368 -8z m-1060 -203 c0 -32 -1 -33 -8 -10 -4 14 -8 41 -8 60 0 32 1 33 8 10 4
-14 8 -41 8 -60z"/>
</g>
</svg>
