<?xml version="1.0" standalone="no"?>
<!DOCTYPE svg PUBLIC "-//W3C//DTD SVG 20010904//EN"
 "http://www.w3.org/TR/2001/REC-SVG-20010904/DTD/svg10.dtd">
<svg version="1.0" xmlns="http://www.w3.org/2000/svg"
 width="1280.000000pt" height="1090.000000pt" viewBox="0 0 1280.000000 1090.000000"
 preserveAspectRatio="xMidYMid meet">
<metadata>
Created by potrace 1.15, written by Peter Selinger 2001-2017
</metadata>
<g transform="translate(0.000000,1090.000000) scale(0.100000,-0.100000)"
fill="#000000" stroke="none">
<path d="M8570 10887 c-80 -19 -122 -40 -170 -84 -71 -63 -103 -169 -64 -208
20 -19 45 -13 102 26 23 16 50 29 60 28 13 0 14 -2 3 -6 -9 -4 -2 -10 20 -17
26 -8 41 -23 61 -60 14 -28 43 -61 64 -75 20 -15 46 -44 58 -65 22 -43 33
-143 17 -165 -10 -15 -55 7 -420 208 -277 151 -477 232 -688 277 -77 16 -126
33 -158 53 -26 16 -75 41 -110 55 -53 21 -69 24 -92 15 -16 -6 -75 -12 -133
-13 -88 -2 -114 -6 -161 -28 -124 -57 -180 -145 -153 -244 5 -18 10 -20 37
-14 18 4 55 19 84 33 29 15 57 27 62 27 6 0 26 -24 44 -52 47 -73 62 -84 91
-69 13 7 32 11 42 9 16 -3 20 -21 33 -128 22 -203 19 -490 -7 -645 -44 -257
-99 -446 -168 -573 -45 -84 -63 -163 -39 -170 15 -4 90 141 136 263 69 184
103 330 169 725 23 134 43 246 45 248 13 13 20 -94 17 -283 -3 -191 -6 -224
-22 -250 -12 -20 -16 -41 -13 -63 3 -21 -1 -48 -12 -73 -14 -29 -16 -45 -8
-61 8 -18 4 -30 -19 -62 -18 -25 -28 -52 -28 -75 -1 -62 -19 -121 -80 -250
-32 -69 -63 -144 -69 -166 -7 -26 -23 -48 -45 -65 -43 -31 -84 -93 -92 -138
-6 -31 -9 -34 -36 -28 -36 7 -47 -14 -24 -49 22 -34 61 -42 86 -20 33 29 34 9
4 -36 -34 -49 -50 -58 -58 -31 -4 11 -17 31 -30 45 -20 21 -29 24 -73 20 -54
-6 -86 6 -103 37 -9 16 1 30 71 97 82 79 111 121 124 181 11 53 -10 38 -79
-56 -69 -94 -112 -126 -161 -120 -27 3 -30 6 -27 36 3 42 23 82 77 152 40 52
45 65 74 207 17 82 31 179 31 215 0 143 -64 280 -195 413 -166 170 -324 230
-531 205 -119 -15 -187 -33 -322 -87 -62 -25 -119 -43 -126 -40 -8 3 -22 30
-31 59 -10 29 -24 60 -32 68 -13 13 -18 11 -43 -17 -16 -18 -34 -49 -39 -70
-14 -49 -14 -164 -1 -199 9 -24 8 -31 -14 -51 -13 -12 -36 -38 -50 -56 -18
-24 -39 -37 -75 -46 -44 -11 -75 -34 -95 -68 -4 -7 0 -25 8 -40 9 -16 30 -61
46 -102 35 -87 40 -78 -88 -197 -146 -136 -153 -186 -41 -284 65 -57 79 -87
55 -122 -10 -13 -16 -43 -16 -74 0 -48 -1 -51 -24 -47 -18 4 -31 -5 -62 -45
-31 -39 -58 -59 -130 -95 -148 -74 -271 -175 -494 -406 l-202 -209 -81 52
c-45 29 -139 87 -208 130 -69 43 -168 108 -220 145 -108 76 -307 269 -331 321
-11 22 -23 97 -32 194 -14 141 -18 163 -43 203 -15 25 -34 55 -41 67 -18 29
-8 107 23 190 14 36 25 80 25 97 0 33 -25 99 -37 99 -4 0 -28 -14 -53 -30 -25
-16 -55 -30 -67 -30 -24 0 -62 -48 -106 -135 -46 -93 -51 -122 -28 -189 23
-64 26 -92 13 -100 -21 -13 -198 71 -387 184 -133 79 -252 138 -333 165 -56
18 -80 16 -174 -11 l-53 -16 55 -50 c30 -28 144 -109 253 -181 108 -72 197
-135 197 -139 0 -4 -70 -8 -155 -8 -86 0 -199 -5 -252 -11 -97 -11 -280 -52
-295 -67 -4 -4 -9 -23 -10 -42 l-3 -35 66 -6 c64 -7 233 -45 254 -57 5 -3 -43
-14 -107 -24 -113 -17 -206 -46 -228 -73 -19 -23 16 -45 72 -45 33 0 72 -10
118 -30 51 -23 83 -30 129 -30 56 0 61 -2 61 -22 0 -20 1 -20 18 -5 20 18 64
21 97 7 18 -7 15 -10 -20 -26 -22 -10 -62 -18 -90 -18 -34 -1 -54 -6 -62 -17
-8 -10 -35 -18 -74 -23 -34 -3 -64 -8 -67 -10 -2 -2 1 -13 7 -24 27 -51 148
-92 271 -92 55 0 117 11 229 39 172 44 170 44 281 -18 30 -17 69 -31 86 -31
69 0 203 -117 372 -325 249 -307 357 -406 552 -505 75 -38 163 -89 196 -113
82 -60 96 -67 143 -67 58 0 124 28 232 98 110 71 163 96 240 112 47 9 59 16
68 38 7 15 40 46 74 69 34 23 143 109 241 192 195 163 221 180 237 164 23 -23
74 -171 130 -377 64 -237 103 -345 149 -412 21 -32 25 -44 15 -44 -8 0 -33 -7
-56 -16 -33 -14 -45 -26 -60 -61 -10 -24 -33 -65 -51 -90 -42 -62 -177 -213
-189 -213 -6 0 -59 27 -119 61 -298 167 -677 296 -1185 404 -174 37 -356 87
-469 130 -60 23 -66 23 -117 10 -119 -32 -197 -81 -314 -199 -75 -76 -136
-126 -190 -159 -104 -62 -216 -146 -334 -249 -209 -183 -253 -228 -300 -306
-76 -126 -151 -217 -268 -323 -33 -30 -53 -58 -61 -86 -9 -29 -37 -69 -93
-129 -44 -47 -88 -103 -98 -123 -15 -29 -28 -39 -63 -48 -24 -7 -87 -40 -139
-74 -51 -35 -116 -71 -144 -81 -69 -24 -192 -23 -308 3 -126 29 -238 22 -367
-20 -202 -67 -480 -223 -577 -323 -57 -59 -107 -146 -137 -237 -40 -123 -60
-271 -36 -271 21 0 83 67 110 119 73 142 80 146 250 147 94 0 178 7 274 23
l138 24 -55 23 c-44 19 -62 22 -82 14 -23 -9 -27 -7 -42 25 -14 30 -20 34 -42
28 -14 -3 -30 -6 -34 -7 -12 -1 -57 182 -50 200 3 8 10 14 15 14 6 0 25 16 43
35 27 28 58 43 163 79 l131 45 15 -47 c36 -113 48 -178 43 -242 -2 -36 -6 -71
-8 -79 -2 -8 8 -21 24 -29 46 -23 31 -46 -33 -52 -91 -8 -39 -21 70 -18 76 2
99 6 95 16 -10 28 -34 130 -40 175 -6 39 -10 47 -25 42 -15 -5 -22 9 -44 81
-15 47 -26 95 -24 107 7 50 118 61 431 43 l157 -9 0 -42 c0 -43 13 -65 41 -65
23 0 53 99 45 150 -6 37 -4 39 40 69 41 27 69 36 134 44 9 1 16 15 18 33 3 26
8 33 32 38 16 3 34 15 41 28 19 37 62 79 97 93 17 8 32 18 32 23 0 5 29 42 65
83 35 41 72 94 82 119 11 29 40 68 82 110 37 36 113 126 171 200 57 74 127
159 154 188 51 55 136 122 153 122 6 0 7 -19 1 -52 -4 -29 -8 -97 -9 -150 0
-78 4 -104 20 -136 21 -42 36 -52 79 -52 15 0 36 -7 46 -15 11 -8 30 -15 42
-15 20 0 18 7 -33 108 -31 59 -59 111 -64 117 -13 13 -11 -16 3 -70 14 -50 9
-61 -20 -46 -32 17 -45 74 -40 172 9 151 45 204 206 298 l73 42 35 -30 c19
-17 38 -31 43 -31 17 0 32 29 43 86 10 50 25 76 96 172 90 120 121 149 195
182 105 47 181 38 342 -40 123 -59 192 -80 264 -81 63 0 94 -6 266 -44 235
-52 272 -64 449 -140 99 -42 201 -81 227 -87 31 -7 51 -18 54 -29 3 -10 22
-31 41 -48 27 -24 33 -36 28 -55 -3 -15 1 -34 11 -50 11 -16 15 -35 11 -50 -4
-16 -1 -26 9 -30 10 -4 15 -20 15 -50 0 -25 5 -48 10 -51 15 -10 12 -35 -5
-35 -18 0 -19 -12 -3 -28 6 -6 12 -39 12 -72 1 -51 -2 -60 -17 -60 -14 0 -16
-5 -11 -26 5 -21 1 -31 -19 -48 -15 -11 -34 -43 -44 -71 -25 -67 -87 -107
-176 -113 -34 -2 -82 -13 -105 -24 -60 -28 -153 -21 -217 17 -26 14 -48 32
-51 40 -3 7 -23 15 -45 19 -27 4 -67 27 -126 72 -147 111 -348 209 -596 290
-104 34 -120 37 -127 23 -8 -14 -15 -14 -71 4 -53 18 -67 19 -105 9 -41 -11
-47 -10 -74 10 -26 19 -33 20 -54 9 -18 -10 -35 -11 -75 -2 -71 15 -81 14 -81
-8 0 -21 -19 -31 -61 -31 -19 0 -29 -5 -29 -15 0 -9 -11 -21 -25 -27 -33 -15
-32 -22 10 -46 l34 -21 21 30 c24 33 60 39 60 10 0 -35 -12 -52 -51 -72 -23
-11 -41 -29 -45 -43 -4 -17 -11 -22 -27 -19 -15 3 -31 -5 -47 -22 l-25 -26 25
-19 c33 -25 20 -36 -19 -16 -16 9 -37 16 -46 16 -25 0 -17 -18 18 -37 26 -14
29 -18 13 -21 -11 -2 -48 17 -91 47 -88 61 -125 78 -125 55 0 -8 7 -17 15 -20
8 -4 15 -13 15 -21 0 -10 -10 -6 -35 13 -20 15 -39 24 -43 20 -13 -14 24 -62
73 -92 61 -39 117 -85 111 -91 -7 -7 -59 23 -113 65 -27 22 -65 48 -83 57
l-34 18 15 -24 c9 -13 58 -55 108 -94 87 -65 120 -100 108 -111 -11 -11 -85
18 -147 56 -36 22 -68 40 -73 40 -19 0 30 -53 76 -81 29 -17 62 -40 74 -51 20
-19 21 -22 7 -43 -8 -12 -12 -28 -9 -36 4 -11 -9 -13 -70 -11 l-75 4 0 -31 c0
-38 -13 -46 -45 -25 -25 16 -29 14 -26 -18 3 -25 -18 -32 -39 -13 -12 11 -26
15 -37 10 -17 -6 -17 -7 2 -21 l20 -15 -20 -16 c-53 -41 -129 -54 -180 -31
-28 13 -45 4 -27 -14 20 -20 15 -40 -7 -28 -22 11 -61 14 -61 3 0 -4 10 -17
22 -30 25 -26 19 -40 -10 -24 -12 6 -33 11 -49 11 l-28 -1 22 -18 c37 -31 29
-44 -23 -38 l-46 5 6 -33 c4 -19 2 -36 -3 -40 -6 -3 -36 8 -67 25 -32 16 -60
27 -63 24 -3 -4 2 -11 13 -18 40 -24 66 -48 66 -61 0 -25 -33 -25 -77 0 -56
34 -76 28 -29 -8 20 -16 36 -37 36 -48 0 -10 -2 -19 -5 -19 -3 0 -29 18 -58
39 -127 96 -175 73 -65 -32 36 -33 58 -61 51 -64 -6 -2 -30 -17 -52 -34 -29
-21 -41 -36 -41 -54 0 -29 -8 -30 -53 -12 -40 17 -57 12 -57 -18 0 -33 33 -49
99 -48 l53 0 -6 -37 c-5 -34 -3 -39 32 -66 l37 -30 305 8 c168 4 1189 12 2270
17 1081 6 2010 10 2065 10 l101 1 14 43 c18 52 62 77 136 77 65 0 151 -42 179
-88 l20 -32 325 3 c179 2 335 7 348 12 14 5 21 13 18 22 -4 10 14 23 59 43 94
42 213 114 418 254 256 174 428 262 582 296 43 10 47 8 112 -33 82 -52 94 -66
95 -106 1 -22 -9 -42 -35 -71 -40 -43 -46 -64 -21 -74 39 -15 74 -4 133 39
l62 46 58 -46 c93 -71 188 -173 252 -269 32 -49 59 -93 59 -98 0 -4 14 -8 30
-8 44 0 83 -23 174 -102 43 -37 81 -66 83 -64 2 2 -14 32 -36 66 -23 35 -41
67 -41 72 0 4 -17 8 -38 8 -66 0 -111 42 -171 158 -33 65 -64 111 -87 131 -26
21 -35 34 -30 47 5 13 -10 33 -56 78 -35 34 -109 109 -165 169 -56 59 -107
107 -113 107 -17 0 7 -39 62 -98 26 -30 48 -57 48 -62 0 -8 -110 58 -418 251
-243 153 -399 282 -472 391 -44 66 -48 83 -24 109 14 16 11 19 -43 48 -69 37
-198 146 -270 229 -29 33 -70 74 -92 91 l-40 32 -15 -34 c-15 -37 -36 -57 -36
-35 0 7 8 35 17 61 13 35 14 52 7 64 -20 32 -34 25 -58 -29 -13 -29 -31 -62
-39 -73 -27 -35 -31 -6 -8 48 39 88 52 129 46 145 -11 30 -62 -36 -94 -123
-17 -45 -40 -90 -51 -100 -28 -25 -26 -16 25 100 44 101 79 214 70 223 -2 3
-20 -11 -38 -29 -21 -22 -46 -65 -66 -119 -41 -105 -74 -172 -95 -189 -28 -23
-18 3 54 151 68 139 96 228 81 257 -10 17 -11 15 -51 -84 -32 -78 -77 -151
-87 -141 -3 2 13 44 35 93 46 99 65 166 60 209 l-3 29 -20 -22 c-11 -12 -30
-48 -43 -80 -24 -63 -48 -100 -58 -91 -3 4 15 52 40 108 54 118 63 193 18 148
-9 -9 -12 -5 -12 17 0 51 -18 97 -67 177 -27 42 -53 84 -59 94 -9 15 -35 18
-235 24 -123 3 -226 4 -229 2 -3 -2 9 -16 26 -32 41 -36 107 -50 233 -50 149
0 223 -29 249 -99 6 -18 2 -39 -15 -82 -24 -61 -34 -136 -52 -424 -16 -246
-61 -331 -183 -348 -51 -7 -48 10 7 33 32 14 45 25 45 40 0 35 -104 27 -288
-21 -120 -31 -180 -42 -256 -44 -107 -4 -119 -10 -109 -57 3 -16 1 -28 -5 -28
-17 0 -251 90 -338 130 -236 109 -398 237 -505 399 -54 83 -53 94 10 111 63
17 95 3 256 -111 99 -70 162 -105 171 -96 2 2 -1 19 -7 39 -12 44 -59 88 -139
128 -33 16 -76 44 -96 62 -34 30 -37 31 -50 14 -12 -18 -14 -17 -41 4 -25 19
-28 28 -28 81 l0 60 -63 58 c-59 54 -63 60 -50 80 11 18 9 32 -15 98 -30 85
-32 105 -17 133 9 17 17 15 127 -31 64 -27 118 -47 119 -46 6 6 -30 67 -52 88
-20 19 -24 20 -24 6 0 -24 -14 -21 -29 6 -7 12 -34 38 -61 57 -27 19 -57 51
-66 70 -22 46 -22 46 -38 24 -13 -18 -17 -13 -55 66 -41 83 -49 122 -32 149 8
12 15 11 50 -3 23 -9 61 -16 85 -16 l44 0 7 63 c11 102 31 162 66 192 20 16
38 24 48 20 9 -4 51 -13 95 -21 43 -8 93 -23 111 -34 31 -19 33 -19 74 -2 41
17 42 18 36 55 -6 41 -28 78 -106 176 -43 55 -48 66 -36 78 10 11 20 11 41 3
53 -20 90 -13 127 26 31 33 222 184 232 184 10 0 -66 -238 -110 -348 -15 -34
-23 -65 -20 -68 3 -4 18 -4 31 0 19 5 34 23 56 66 16 32 36 62 43 67 19 12 49
119 46 166 -2 25 4 52 13 67 8 14 21 54 28 90 6 36 21 79 31 97 l20 31 -23 16
c-21 15 -21 16 26 37 27 11 52 17 56 12 4 -4 18 -50 30 -102 12 -52 32 -129
46 -172 21 -67 27 -76 44 -72 12 3 29 -2 40 -12 23 -21 50 -13 50 15 0 14 -7
20 -22 20 l-23 1 25 20 24 21 -24 19 c-44 33 -12 21 130 -51 117 -60 147 -80
197 -133 35 -37 64 -80 72 -105 13 -38 17 -42 48 -42 58 0 186 -31 242 -58 71
-35 150 -108 183 -169 56 -103 128 -362 144 -515 6 -59 5 -68 -10 -68 -24 0
-19 -13 12 -32 15 -10 35 -23 44 -30 9 -7 21 -9 25 -4 4 4 0 12 -10 17 -25 15
-21 26 14 38 28 9 35 8 63 -15 88 -72 247 -282 348 -459 89 -158 210 -406 214
-443 7 -61 14 -72 40 -72 27 0 28 -3 13 -31 -9 -18 -8 -20 13 -17 16 2 24 11
28 32 3 16 10 31 17 33 14 5 38 -69 30 -90 -3 -8 -29 -23 -57 -32 -57 -19 -63
-29 -9 -16 19 5 71 12 116 15 l82 5 3 -42 c2 -29 8 -42 18 -42 25 0 84 227
166 635 70 352 119 568 129 579 18 18 -52 -354 -165 -869 -27 -124 -56 -264
-66 -312 l-17 -87 33 -28 c39 -33 70 -52 87 -53 6 0 16 26 22 58 6 31 15 80
21 107 5 28 41 196 80 375 86 394 120 586 120 688 0 79 20 178 28 135 5 -30
-24 -294 -48 -438 -25 -151 -37 -209 -115 -580 -35 -165 -68 -321 -73 -346
l-9 -47 55 -56 c30 -31 58 -56 62 -56 4 0 22 -21 38 -47 31 -48 142 -159 404
-405 l136 -128 236 -80 c129 -43 261 -93 293 -109 54 -27 59 -32 71 -77 7 -27
38 -93 68 -147 l54 -98 -57 -107 c-33 -59 -81 -130 -110 -161 l-52 -56 -1 46
c0 46 5 56 98 204 17 28 33 59 34 70 2 14 -25 46 -90 108 -83 79 -96 88 -120
82 -15 -4 -67 -13 -117 -21 -92 -15 -124 -30 -158 -76 -19 -25 -19 -26 7 -74
14 -27 57 -85 96 -128 48 -54 75 -94 84 -125 17 -56 8 -68 -34 -46 -17 9 -37
14 -43 12 -7 -2 2 -11 18 -20 31 -15 94 -79 151 -151 l31 -40 113 105 c61 57
117 104 123 104 26 0 59 -155 64 -300 9 -263 -51 -488 -241 -901 -48 -103 -61
-122 -104 -155 -45 -34 -58 -55 -150 -241 -115 -232 -151 -323 -191 -481 -42
-162 -55 -286 -48 -451 7 -161 24 -252 61 -324 25 -49 57 -85 43 -48 -16 40
-37 139 -51 237 -43 290 6 564 153 857 34 68 117 216 185 330 153 259 212 368
270 505 86 203 124 372 133 587 6 149 15 180 51 180 13 0 14 -22 9 -158 -11
-283 -68 -515 -182 -742 -21 -41 -93 -171 -162 -287 -121 -208 -142 -248 -177
-345 -9 -25 -44 -83 -76 -128 -41 -56 -67 -105 -84 -158 -46 -145 -51 -179
-50 -367 0 -219 17 -295 125 -587 113 -308 138 -386 160 -503 49 -256 -14
-607 -143 -787 l-19 -28 -23 27 -23 27 -34 -38 c-62 -70 -63 -89 -4 -67 98 35
34 -47 -80 -104 -74 -36 -168 -54 -220 -41 l-26 7 48 38 c26 21 71 66 98 100
43 52 55 61 83 61 31 0 72 28 72 50 0 16 -12 12 -38 -12 l-25 -23 8 40 c8 49
44 135 56 135 5 0 11 -12 15 -27 10 -42 32 -73 53 -73 37 0 120 230 142 397
21 160 -6 357 -71 512 -49 116 -131 285 -147 303 -34 37 -30 15 12 -75 152
-325 194 -646 119 -905 -12 -44 -18 -52 -34 -47 -10 3 -21 1 -25 -5 -12 -20
-25 -10 -25 19 0 36 -13 46 -38 30 -35 -22 -64 -78 -88 -170 -14 -50 -31 -103
-39 -118 -17 -32 -73 -85 -143 -135 -67 -48 -102 -99 -102 -148 l0 -37 58 -8
c31 -4 118 -8 192 -8 193 1 306 34 398 119 37 34 72 83 72 100 0 3 -15 9 -32
14 -20 5 -33 15 -33 24 0 27 -12 30 -45 13 -27 -14 -34 -15 -42 -3 -13 20 -1
84 32 157 56 128 100 371 100 551 0 138 -15 237 -66 443 -25 105 -39 143 -56
157 -13 11 -26 19 -29 20 -13 0 -71 144 -95 236 -48 182 -45 457 7 683 32 139
55 198 92 235 22 22 44 61 63 112 16 46 40 90 59 108 36 36 98 143 185 316
176 350 260 620 290 925 13 131 9 173 -44 400 -36 155 -35 193 9 245 37 45 66
70 101 88 17 9 27 6 57 -19 21 -17 38 -42 43 -62 3 -17 31 -93 62 -167 l54
-135 5 -215 c5 -217 2 -260 -42 -580 -8 -63 -19 -144 -24 -180 -12 -86 -39
-155 -106 -270 -101 -174 -127 -230 -133 -292 -4 -49 -10 -63 -34 -83 -24 -20
-40 -25 -88 -25 -31 0 -74 7 -93 15 -48 20 -47 20 -37 -16 24 -84 71 -113 174
-107 55 3 86 11 138 37 108 54 137 101 62 101 -43 0 -52 19 -33 74 22 64 96
102 153 80 22 -9 20 -33 -6 -53 -29 -24 -18 -51 22 -51 42 0 62 23 152 186
189 341 325 683 419 1054 66 260 101 512 115 825 4 83 11 161 16 175 l10 25
13 -32 c31 -72 47 -35 77 172 22 155 15 610 -16 958 -25 284 -29 354 -21 332
10 -24 65 -535 76 -695 13 -201 7 -439 -16 -555 -22 -114 -20 -212 5 -252 11
-18 24 -33 28 -33 15 0 32 73 44 190 9 96 8 183 -11 535 -27 535 -26 623 6
305 20 -200 25 -307 26 -585 1 -187 -1 -372 -5 -412 l-8 -71 53 -30 c35 -20
78 -60 126 -116 40 -47 86 -97 101 -109 15 -13 31 -35 35 -48 16 -55 103 -179
125 -179 33 0 43 326 26 850 -5 151 -6 273 -3 270 3 -3 13 -133 22 -290 19
-313 16 -676 -6 -815 -12 -79 -12 -81 18 -160 69 -178 102 -361 110 -611 12
-362 -50 -713 -165 -941 -30 -59 -31 -65 -21 -111 25 -106 -25 -211 -106 -226
-38 -8 -43 -20 -20 -53 16 -24 14 -27 -27 -37 -46 -11 -34 -29 15 -21 153 23
245 63 311 136 25 28 46 55 46 60 0 5 9 9 19 9 11 0 28 11 39 25 11 14 29 25
40 25 15 0 19 5 15 20 -4 13 2 29 15 43 28 30 38 60 47 142 10 97 38 236 96
470 82 331 105 494 130 935 17 311 -1 962 -32 1135 -17 96 -62 230 -70 208 -6
-17 -3 -49 18 -208 6 -47 1 -175 -5 -143 -1 4 -20 115 -42 245 -97 567 -110
619 -239 976 -267 734 -365 929 -786 1567 -189 285 -342 497 -459 635 -120
141 -482 523 -742 782 -139 139 -255 261 -258 271 -10 31 -407 383 -570 506
-121 91 -343 226 -371 226 -13 0 -3 -28 15 -45 25 -23 25 -35 0 -35 -33 0 -70
-22 -76 -47 -8 -30 25 -84 116 -193 94 -112 194 -263 326 -493 75 -132 104
-191 96 -196 -9 -5 7 -42 54 -127 92 -167 262 -507 356 -714 121 -266 240
-542 235 -547 -9 -8 -48 57 -74 120 -30 74 -48 98 -38 48 5 -25 4 -32 -5 -26
-8 5 -10 21 -6 46 5 33 3 41 -17 54 -27 18 -66 84 -97 168 -12 31 -37 74 -56
94 -26 28 -39 54 -54 116 -31 123 -90 245 -215 446 -100 161 -115 190 -115
228 0 24 -3 43 -7 43 -21 1 -37 22 -52 71 -14 43 -23 55 -42 57 -35 6 -49 21
-49 56 0 17 -12 58 -25 91 -14 33 -25 65 -25 70 -1 25 -17 37 -38 26 -21 -11
-32 1 -32 39 0 9 -22 61 -50 115 -27 54 -50 107 -50 119 0 32 -19 47 -42 35
-27 -14 -47 5 -54 51 -3 20 -9 42 -13 47 -7 12 -89 33 -126 33 -22 0 -24 3
-15 19 15 30 13 33 -21 26 -29 -6 -30 -6 -20 13 16 31 14 34 -19 27 -32 -7
-36 -1 -21 38 13 32 3 41 -24 23 -22 -14 -23 -14 -29 40 -3 31 -4 60 -1 65 9
14 -18 10 -39 -6 -24 -18 -45 -20 -28 -3 18 18 15 49 -4 41 -8 -3 -25 4 -39
17 -14 13 -28 21 -31 17 -4 -3 -18 17 -33 45 -37 74 -72 90 -181 85 -65 -2
-97 -9 -137 -29 -29 -14 -53 -22 -53 -18 0 13 69 69 113 92 49 25 169 36 216
20 28 -10 32 -9 43 15 15 30 32 32 36 4 4 -23 55 -70 127 -115 44 -28 50 -35
50 -66 0 -29 4 -36 23 -38 18 -3 23 2 28 27 8 36 10 37 49 11 17 -11 47 -20
68 -20 22 0 73 -15 118 -35 44 -19 87 -35 96 -35 9 0 44 -21 77 -47 1032 -799
1836 -1676 2475 -2700 132 -212 367 -723 435 -947 15 -49 40 -112 56 -140 46
-82 66 -142 134 -399 57 -215 105 -357 120 -357 9 0 -4 88 -26 174 -10 43 -41
139 -68 213 -27 74 -59 183 -71 241 -26 132 -64 229 -191 492 -55 113 -124
266 -155 340 -185 452 -353 720 -792 1265 -400 496 -925 1066 -1136 1231 -55
43 -150 126 -210 184 -400 382 -638 539 -935 614 -82 21 -93 26 -129 68 -54
61 -122 89 -226 94 -44 2 -104 -2 -135 -9z m-1555 -106 c9 -28 -13 -57 -65
-84 -62 -34 -90 -42 -90 -25 0 28 50 86 92 107 53 26 55 26 63 2z m327 -37
c45 -31 87 -58 94 -61 7 -2 28 3 47 12 32 15 39 15 118 -5 274 -70 549 -190
794 -348 103 -66 237 -163 232 -169 -9 -8 -183 85 -235 127 -33 25 -100 60
-175 91 -67 27 -155 72 -196 99 -53 36 -83 50 -108 50 -26 0 -43 8 -67 33 -26
25 -42 32 -72 32 -21 1 -64 4 -94 8 -112 15 -106 -32 16 -123 102 -75 329
-292 418 -399 138 -165 266 -384 330 -561 15 -41 36 -94 48 -117 11 -23 18
-50 14 -59 -11 -29 -34 3 -57 80 -23 79 -33 94 -66 107 -15 5 -23 17 -23 31
-1 41 -45 131 -117 238 -38 58 -80 132 -93 165 -28 74 -25 70 -81 139 -26 32
-60 66 -78 77 -17 10 -31 25 -31 32 0 21 -61 74 -112 97 -26 11 -49 29 -53 39
-12 39 -153 141 -195 141 -15 0 -12 -107 4 -160 8 -25 43 -106 79 -180 73
-153 85 -190 62 -190 -8 0 -22 18 -31 40 -15 36 -24 44 -46 41 -7 -1 -18 33
-63 184 -32 105 -54 152 -95 199 -17 18 -30 43 -30 55 0 17 -5 22 -22 19 -16
-2 -24 3 -26 17 -9 45 -66 77 -199 111 -54 14 -73 23 -73 35 0 9 -7 22 -15 29
-22 18 -18 40 12 72 44 46 86 39 185 -28z m1564 -601 c-3 -21 -6 -48 -6 -60 0
-13 -5 -22 -12 -20 -9 1 -15 -30 -20 -112 -21 -334 -118 -577 -287 -719 -44
-37 -51 -48 -51 -79 0 -31 -9 -44 -65 -97 -45 -42 -67 -71 -71 -93 -4 -18 -11
-33 -16 -33 -5 0 -49 -38 -99 -85 -49 -47 -95 -85 -102 -85 -6 0 -37 -24 -68
-52 -32 -30 -110 -83 -180 -122 -72 -41 -143 -89 -171 -117 -30 -30 -58 -49
-80 -52 -98 -17 -128 -31 -140 -65 l-13 -34 -21 27 c-14 17 -24 23 -28 16 -4
-6 -20 -11 -37 -11 -17 0 -33 -7 -40 -17 -9 -15 -22 -17 -77 -15 -65 4 -67 5
-124 60 -32 32 -65 67 -74 80 -15 23 -15 23 19 17 25 -5 46 -1 77 15 l43 22
24 -31 c30 -38 53 -40 53 -6 0 25 14 33 25 15 3 -5 17 -10 31 -10 20 0 25 5
24 23 -4 38 -1 39 31 13 29 -24 31 -25 55 -10 14 9 35 14 50 11 24 -4 26 -3
19 27 -10 52 -10 71 0 74 6 1 12 -12 15 -30 4 -25 11 -34 28 -36 18 -3 22 1
22 23 0 24 3 26 29 20 34 -7 68 8 141 63 27 21 75 46 107 57 59 20 113 58 113
79 0 7 26 30 58 52 31 21 131 111 222 199 91 88 190 183 222 211 49 44 67 72
136 210 97 192 115 247 142 429 32 216 52 285 82 285 18 0 20 -4 14 -37z m95
-138 c47 -103 59 -196 74 -530 7 -170 11 -313 9 -317 -3 -5 -12 -8 -20 -8 -16
0 -19 -16 -3 -25 6 -5 8 -31 3 -75 -6 -63 -5 -68 17 -83 l22 -16 -25 -10 -25
-9 -6 -354 c-5 -343 -22 -593 -53 -808 -19 -130 -45 -262 -55 -273 -4 -5 -12
8 -19 28 -15 47 -6 108 30 205 27 72 29 89 45 385 40 776 41 1038 4 1524 -21
280 -29 338 -54 397 -8 20 -12 40 -9 46 10 16 36 -15 65 -77z m-2704 -65 c267
-64 463 -261 463 -466 0 -42 -1 -44 -25 -38 -19 5 -25 2 -25 -10 0 -10 11 -27
25 -40 31 -29 32 -38 1 -30 -32 8 -36 -8 -20 -85 8 -36 11 -75 8 -88 -6 -24
-28 -31 -39 -13 -3 6 -10 10 -16 10 -16 0 -10 -31 12 -58 l20 -26 -20 -8 c-15
-5 -21 -16 -21 -40 0 -56 -9 -60 -77 -35 -34 13 -64 25 -67 28 -3 3 -36 -9
-73 -28 -50 -24 -88 -35 -143 -40 -64 -5 -80 -11 -119 -40 -24 -19 -88 -55
-140 -79 -177 -83 -209 -122 -127 -153 l38 -15 58 65 c62 68 63 68 78 -6 5
-26 16 -44 30 -51 20 -10 21 -13 7 -24 -8 -7 -15 -23 -15 -35 0 -48 81 -35
134 21 27 30 27 54 -1 86 -23 26 1 30 46 5 46 -25 46 -38 5 -94 -49 -65 -154
-105 -224 -84 -37 11 -41 10 -84 -22 -24 -19 -79 -49 -122 -66 -44 -18 -106
-45 -139 -60 -55 -25 -69 -27 -141 -23 -62 3 -88 1 -113 -12 -34 -18 -46 -17
-123 16 l-46 20 12 41 c7 26 20 46 34 52 26 12 29 50 6 76 -19 21 -11 39 16
39 11 0 45 11 76 25 31 14 73 25 93 25 32 0 39 -5 59 -41 16 -27 37 -47 65
-60 68 -30 157 -23 157 13 0 17 -5 20 -30 16 -19 -3 -29 -1 -27 6 2 6 20 12
40 14 19 2 41 9 47 17 9 11 16 11 40 -3 16 -9 31 -14 35 -11 12 13 -9 41 -44
58 -39 20 -55 22 -57 6 -1 -5 -2 -14 -3 -19 0 -4 -16 5 -34 21 -18 16 -76 51
-128 77 -125 65 -173 99 -199 141 -12 20 -25 34 -27 31 -9 -8 18 -109 38 -144
24 -42 24 -42 -8 -42 -40 0 -87 32 -106 73 -23 47 -22 53 13 66 17 5 30 16 30
23 0 28 -25 38 -96 38 -104 0 -120 20 -78 102 8 15 51 64 95 108 79 79 82 80
105 65 40 -26 54 -59 65 -151 14 -123 17 -129 81 -144 29 -7 63 -18 75 -26 31
-19 33 -18 27 14 -7 33 4 44 59 62 38 12 39 13 32 49 -17 91 -55 128 -199 195
-76 35 -78 37 -73 65 4 16 3 53 0 81 l-6 51 -42 -7 -42 -6 -16 45 c-14 43 -14
46 4 62 11 11 28 16 44 13 22 -5 31 2 62 49 20 30 51 66 68 80 l33 26 -24 70
c-27 80 -29 111 -9 147 l14 25 25 -57 c26 -59 65 -95 91 -84 8 3 15 14 15 26
0 35 122 99 240 124 97 21 250 20 347 -4z m1470 -12 c5 -7 17 -32 25 -55 13
-35 14 -43 3 -43 -30 0 -42 11 -37 35 3 16 -1 27 -11 31 -9 3 -13 13 -10 25 6
22 17 24 30 7z m1987 -414 c3 -8 2 -12 -4 -9 -6 3 -10 10 -10 16 0 14 7 11 14
-7z m-1872 -174 c-2 -8 2 -51 8 -96 10 -81 7 -114 -12 -114 -5 0 -12 9 -15 20
-3 11 -8 20 -12 20 -5 0 -8 160 -3 183 1 5 10 7 20 5 9 -2 16 -10 14 -18z
m-4602 -262 c44 -143 59 -180 80 -203 18 -20 19 -27 36 -281 7 -96 -2 -129
-44 -167 -19 -18 -20 -21 -6 -59 13 -39 13 -42 -7 -57 -12 -9 -52 -27 -88 -41
l-66 -25 -85 23 c-193 54 -220 64 -266 95 -27 17 -59 50 -71 72 -12 21 -32 43
-45 48 -13 5 -90 7 -173 6 -82 -2 -181 -3 -220 -2 -77 1 -155 18 -155 34 0 6
21 19 46 31 44 19 58 20 255 13 l208 -7 25 25 c35 35 35 79 0 106 -36 28 -97
35 -216 22 -151 -17 -268 -15 -311 3 -47 19 -47 33 1 45 64 17 139 22 376 25
224 3 230 3 248 26 10 12 18 26 18 31 0 23 -75 88 -142 123 -94 50 -152 97
-168 136 -7 17 -10 33 -8 36 7 6 420 -214 510 -273 l68 -43 -20 -37 c-24 -47
-35 -139 -21 -175 5 -15 25 -35 42 -44 31 -16 32 -17 13 -31 -31 -23 1 -34 82
-27 46 4 78 2 92 -5 37 -20 27 15 -19 67 -23 26 -57 79 -75 117 l-34 70 26 55
c15 30 37 67 51 81 l24 26 -16 96 c-14 77 -14 103 -5 132 6 19 15 35 20 35 4
0 22 -46 40 -102z m2380 22 c46 -23 52 -40 14 -40 -30 0 -87 37 -79 51 9 13
21 11 65 -11z m2240 -59 c0 -25 -4 -29 -25 -27 -29 1 -30 4 -9 34 21 30 34 28
34 -7z m-2305 -23 c30 -14 33 -28 4 -28 -28 0 -61 19 -54 31 8 12 19 11 50 -3z
m865 -92 c0 -18 -15 -36 -31 -36 -18 0 -26 20 -12 33 7 8 43 10 43 3z m1434
-71 c4 -20 13 -38 21 -41 20 -8 -15 -65 -35 -59 -9 3 -38 -9 -64 -26 l-49 -30
22 33 c12 18 37 63 54 99 18 37 35 65 38 63 4 -2 10 -20 13 -39z m-1522 -42
c22 -20 23 -39 1 -47 -20 -8 -30 1 -38 37 -8 32 8 36 37 10z m-1115 -277 c4
-25 0 -49 -12 -76 l-18 -39 31 -36 c17 -19 39 -60 47 -90 16 -54 37 -273 28
-287 -2 -5 -12 -8 -21 -8 -11 0 -29 -24 -50 -65 -27 -51 -59 -88 -150 -173
-161 -148 -212 -190 -322 -261 -111 -72 -241 -140 -394 -206 -91 -40 -112 -45
-132 -36 -13 6 -25 15 -25 21 -1 5 -2 15 -3 21 0 6 -43 26 -93 44 -208 74
-349 181 -604 457 -62 67 -97 113 -93 122 3 8 -19 41 -57 83 -77 84 -98 125
-79 148 10 12 24 15 48 11 33 -5 34 -4 29 22 -21 106 -22 97 21 110 61 18 68
16 86 -32 10 -25 34 -63 55 -84 37 -38 180 -137 187 -129 2 2 -44 55 -103 118
-68 72 -115 133 -130 167 -21 44 -29 52 -52 52 -29 0 -51 16 -51 37 0 28 47
12 92 -32 25 -24 59 -47 74 -51 16 -4 59 -35 96 -70 63 -59 139 -112 425 -294
205 -130 354 -302 379 -436 7 -40 13 -42 43 -10 52 56 30 146 -64 253 l-46 52
128 134 c71 73 144 156 163 184 24 35 51 59 89 79 30 16 96 68 147 116 l92 88
60 0 c55 0 63 3 85 30 14 16 33 52 42 81 15 44 19 49 31 37 8 -8 17 -31 21
-52z m-2064 20 c4 -10 -4 -15 -29 -18 -36 -4 -41 1 -22 20 16 16 45 15 51 -2z
m2767 -75 c0 -23 -14 -41 -31 -41 -21 0 -25 20 -7 38 14 14 38 16 38 3z
m-3235 -127 c-30 -24 -94 -50 -153 -63 -60 -12 -172 -15 -172 -3 0 11 276 80
325 81 l20 0 -20 -15z m2741 -76 c-3 -13 -6 -29 -6 -35 0 -21 -28 -15 -40 8
-16 29 -5 49 26 49 22 0 25 -3 20 -22z m4934 -259 c0 -5 -4 -9 -8 -9 -15 0
-32 24 -32 45 1 19 1 19 20 -4 11 -13 20 -27 20 -32z m178 -506 c135 -369 178
-529 243 -916 44 -262 54 -428 30 -499 -10 -31 -26 -48 -32 -35 -1 1 -5 128
-9 282 -8 304 -17 374 -84 639 -43 170 -83 296 -201 636 -51 146 -95 281 -99
300 -3 19 11 -14 32 -75 22 -60 76 -210 120 -332z m-2201 115 c-9 -37 -92
-260 -109 -293 -9 -17 -26 -39 -37 -50 l-22 -19 21 49 c17 40 106 269 125 323
8 22 28 13 22 -10z m893 -229 c-14 -184 -44 -416 -76 -588 -40 -218 -151 -696
-153 -660 -1 18 52 312 118 649 60 308 111 646 111 734 0 11 3 17 6 14 3 -3 0
-70 -6 -149z m655 -194 c4 -177 3 -224 -6 -205 -7 16 -13 115 -15 275 -2 171
0 236 6 205 5 -25 12 -148 15 -275z m-789 168 c-35 -273 -96 -587 -171 -878
-114 -441 -91 -295 78 505 36 168 73 351 83 407 10 57 19 101 22 99 2 -3 -3
-62 -12 -133z m-198 55 c2 -9 -4 -18 -13 -21 -11 -5 -15 0 -15 19 0 28 23 29
28 2z m652 -51 c0 -47 -13 -77 -25 -58 -9 16 5 112 16 105 5 -3 9 -24 9 -47z
m-140 -242 c-27 -278 -105 -844 -126 -930 -15 -55 -50 -122 -61 -112 -2 3 11
81 31 174 65 315 111 621 141 953 8 91 16 174 17 185 1 11 4 -20 6 -70 2 -49
-2 -139 -8 -200z m311 -310 c-12 -247 -44 -608 -61 -675 -7 -28 -8 -23 -4 25
19 238 46 735 52 960 l7 270 9 -165 c6 -111 5 -246 -3 -415z m-386 307 c-28
-277 -57 -457 -127 -781 -23 -107 -43 -190 -45 -184 -2 6 12 105 32 219 80
462 124 735 137 844 7 63 14 102 16 87 2 -15 -4 -99 -13 -185z m-990 61 c-21
-49 -43 -103 -49 -120 -7 -18 -16 -36 -20 -40 -17 -17 8 67 50 166 24 57 45
111 45 120 1 9 4 4 6 -11 3 -17 -10 -62 -32 -115z m592 85 c-3 -8 -6 -5 -6 6
-1 11 2 17 5 13 3 -3 4 -12 1 -19z m-663 -63 c-21 -32 -30 -25 -16 12 26 72
25 70 30 41 2 -15 -4 -38 -14 -53z m996 -115 c-18 -173 -53 -374 -120 -690
-99 -467 -93 -392 21 229 43 238 84 481 91 540 8 64 14 92 16 71 2 -19 -2 -87
-8 -150z m-380 -67 c-23 -114 -52 -251 -66 -303 -30 -114 -95 -312 -102 -306
-2 3 8 44 21 93 26 89 102 398 153 621 44 189 40 127 -6 -105z m767 -30 c-6
-238 -39 -669 -53 -682 -7 -6 -1 103 22 414 8 110 17 273 21 363 3 89 8 162
11 162 3 0 2 -116 -1 -257z m-1241 133 c-15 -39 -63 -108 -52 -76 62 188 61
185 64 150 2 -18 -4 -52 -12 -74z m1039 -127 c-19 -260 -71 -667 -82 -655 -6
6 8 159 47 506 17 146 33 289 36 318 3 30 8 52 10 49 3 -3 -2 -101 -11 -218z
m55 -144 c-12 -187 -43 -452 -70 -615 l-19 -115 5 110 c6 114 39 483 71 780
18 169 18 169 21 85 2 -47 -2 -157 -8 -245z m296 77 c4 -108 -1 -227 -15 -382
l-20 -225 7 265 c4 146 7 324 7 397 0 181 16 140 21 -55z m-1396 -18 c-38 -77
-58 -85 -28 -11 11 28 28 76 37 105 l16 53 3 -42 c2 -31 -5 -58 -28 -105z
m1159 -176 c-20 -173 -21 -182 -4 -249 18 -74 15 -102 -9 -93 -17 7 -22 -7
-36 -110 -6 -44 -13 -82 -15 -85 -7 -6 0 81 36 433 16 160 29 308 29 331 0 23
3 45 8 49 16 17 12 -106 -9 -276z m598 215 c-2 -16 -4 -5 -4 22 0 28 2 40 4
28 2 -13 2 -35 0 -50z m-1717 -118 c-16 -49 -32 -91 -35 -93 -14 -14 -2 53 25
142 17 55 31 102 32 105 1 3 3 -10 5 -30 3 -23 -7 -68 -27 -124z m309 -56
c-40 -157 -65 -227 -76 -216 -2 3 0 14 6 24 5 11 21 66 36 124 32 126 66 241
72 235 2 -2 -15 -77 -38 -167z m2710 44 c72 -366 103 -810 81 -1153 -19 -300
-25 -294 -21 25 4 399 -18 762 -69 1099 -29 189 -25 202 9 29z m-2943 -38
c-21 -60 -25 -65 -25 -37 -1 19 9 66 22 105 20 66 22 69 25 37 1 -19 -8 -66
-22 -105z m1360 -100 c-5 -134 -27 -365 -45 -470 -9 -50 -9 -50 -10 25 0 41 8
183 19 315 11 132 20 267 21 300 l1 60 10 -45 c5 -25 7 -108 4 -185z m393 63
c1 -20 -3 -40 -9 -43 -6 -4 -10 19 -9 62 1 49 3 61 9 43 4 -14 8 -42 9 -62z
m-79 -249 c8 -157 9 -257 1 -369 -10 -144 -29 -285 -37 -278 -1 2 2 53 8 113
6 66 8 260 6 485 -5 394 3 411 22 49z m312 218 c21 -269 20 -983 -1 -962 -3 4
-6 214 -6 468 -1 254 -5 494 -9 532 -5 41 -5 67 0 62 5 -5 12 -50 16 -100z
m-4954 -12 c-3 -17 -6 -16 -32 7 -21 18 -27 30 -22 43 6 17 9 17 32 -7 14 -14
24 -34 22 -43z m4461 -288 c-6 -114 -16 -254 -24 -310 -12 -99 -13 -100 -14
-37 0 36 6 148 14 250 8 102 15 246 16 320 2 130 2 132 10 60 5 -45 4 -159 -2
-283z m-84 -87 c-9 -107 -21 -204 -26 -215 -12 -26 -3 188 16 365 8 74 16 164
17 200 1 43 4 27 6 -45 2 -60 -4 -198 -13 -305z m164 10 c0 -146 -3 -296 -8
-335 -5 -46 -8 69 -8 335 0 261 3 380 8 335 5 -38 8 -189 8 -335z m183 106 c4
-167 -12 -514 -22 -495 -4 8 -5 172 -2 364 6 345 18 414 24 131z m75 -147 c-4
-200 -11 -357 -16 -367 -8 -13 -11 -5 -11 33 -1 92 24 685 29 685 2 0 1 -158
-2 -351z m1060 289 c-3 -7 -5 -2 -5 12 0 14 2 19 5 13 2 -7 2 -19 0 -25z
m-6249 -23 c81 -47 90 -72 14 -39 -53 24 -82 47 -82 66 0 12 5 11 68 -27z
m3466 10 c6 -17 -22 -95 -34 -95 -17 0 -19 33 -4 70 17 42 28 50 38 25z m2451
-445 c0 -342 -3 -441 -18 -562 -17 -138 -44 -269 -32 -158 16 151 28 493 29
807 1 245 4 356 11 345 6 -11 10 -174 10 -432z m141 79 c5 -196 3 -371 -6
-520 -17 -297 -30 -366 -22 -114 4 110 7 382 7 604 0 457 12 474 21 30z
m-5660 339 c28 -32 57 -79 51 -84 -5 -5 -87 90 -87 100 0 13 17 5 36 -16z
m5815 -253 c11 -165 7 -654 -8 -922 -5 -100 -4 -113 10 -113 9 0 24 12 34 27
33 49 36 565 9 1178 -5 94 -4 92 9 -35 7 -74 18 -237 24 -363 50 -1035 -95
-1972 -399 -2582 -81 -162 -82 -155 -5 45 236 614 329 1079 309 1545 -9 219
-11 604 -4 1045 2 157 1 323 -2 370 -5 67 -5 74 2 30 5 -30 14 -131 21 -225z
m-85 139 c18 -141 22 -514 8 -754 -8 -153 -9 -129 -15 320 -3 267 -9 503 -14
525 -4 22 -5 37 -1 34 4 -4 13 -60 22 -125z m-5929 84 c0 -7 3 -24 7 -37 12
-34 -14 -23 -37 17 l-19 32 24 0 c14 0 25 -6 25 -12z m5092 -203 c0 -60 -4
-162 -9 -225 -12 -144 -43 -387 -47 -373 -2 6 3 87 12 179 8 93 19 275 23 404
7 239 19 248 21 15z m1326 -235 c12 -90 18 -230 20 -420 3 -299 1 -287 -25
135 -6 99 -22 302 -35 450 -14 149 -24 275 -24 280 2 13 43 -270 64 -445z
m-6598 396 c15 -13 25 -27 21 -31 -3 -3 -21 7 -40 24 -39 36 -22 42 19 7z
m5963 -386 c1 -287 -20 -684 -36 -699 -4 -3 -4 30 0 74 3 44 9 292 13 550 8
519 22 564 23 75z m-190 90 c1 -193 -9 -350 -30 -500 -8 -55 -8 -48 -4 50 2
63 7 257 11 430 8 347 21 358 23 20z m-5725 219 c33 -16 76 -45 95 -65 l35
-36 -35 7 c-68 14 -169 76 -191 116 -10 19 -9 20 13 14 12 -4 50 -20 83 -36z
m5781 -333 c-4 -160 -13 -340 -21 -401 l-14 -110 4 170 c17 618 19 666 28 649
6 -11 7 -122 3 -308z m-5786 248 c79 -38 156 -91 147 -101 -8 -7 -162 58 -194
83 -30 23 -66 71 -46 62 4 -2 46 -22 93 -44z m6619 -119 c39 -304 52 -672 32
-920 -7 -84 -8 -80 -9 70 -4 306 -23 691 -48 955 -12 123 4 55 25 -105z
m-3845 102 c29 -30 84 -105 122 -168 l70 -114 -38 -114 c-41 -123 -67 -170
-109 -195 -36 -21 -98 -20 -152 3 -25 11 -48 17 -51 14 -3 -4 -6 -22 -6 -41 0
-44 57 -102 117 -120 89 -27 160 -12 277 56 58 34 145 66 154 58 2 -3 -24 -18
-59 -34 -62 -28 -167 -96 -394 -256 -132 -93 -281 -169 -390 -197 -67 -18
-112 -21 -280 -23 -219 -1 -267 8 -315 59 -22 23 -22 28 -11 67 29 96 100 202
169 253 23 17 42 38 42 48 0 9 -13 43 -30 74 -34 64 -36 80 -15 110 13 19 20
21 41 13 38 -15 144 -12 201 5 63 19 127 65 144 104 8 18 21 31 32 31 29 0 59
38 116 148 84 161 144 217 254 237 22 4 37 13 37 21 0 26 21 14 74 -39z m-638
-53 c4 -24 -4 -57 -35 -133 -28 -70 -41 -116 -41 -149 0 -40 -5 -53 -28 -75
-46 -44 -103 -53 -140 -22 -2 2 3 16 11 32 8 15 34 87 57 158 23 72 58 163 76
204 l34 74 30 -28 c16 -16 32 -43 36 -61z m4729 -139 c28 -228 37 -552 25
-877 -6 -166 -12 -303 -14 -305 -1 -2 -6 241 -9 539 -5 371 -11 587 -22 683
-8 77 -14 147 -14 155 2 26 18 -70 34 -195z m-5090 85 c37 -36 46 -40 63 -31
28 15 65 14 60 -1 -3 -7 -35 -22 -71 -32 -66 -20 -67 -20 -67 -55 0 -83 2 -81
-134 -81 -141 0 -170 5 -160 29 4 9 9 28 11 43 4 23 0 29 -33 45 -72 34 -56
43 79 43 111 0 127 2 151 21 14 11 26 24 26 29 0 13 -57 28 -135 35 -74 7
-133 21 -150 37 -6 6 15 7 55 3 36 -3 106 0 155 7 l90 13 8 -31 c5 -17 28 -50
52 -74z m-1490 6 c10 -28 28 -70 41 -93 12 -24 18 -43 13 -43 -23 0 -58 55
-79 127 -13 43 -25 85 -27 93 -12 39 36 -39 52 -84z m495 -100 c102 -68 536
-312 635 -357 61 -27 166 -54 243 -63 34 -3 48 0 63 15 23 23 25 57 4 65 -38
15 -4 44 53 44 21 0 22 -3 22 -85 0 -84 0 -86 -27 -96 l-28 -11 23 -15 c92
-63 -141 15 -367 123 -63 30 -117 54 -121 54 -4 0 -10 -13 -13 -30 -4 -16 -12
-30 -18 -30 -7 0 -9 9 -5 25 13 52 -25 84 -129 105 -123 25 -246 110 -445 308
-119 118 -131 132 -65 78 44 -37 123 -96 175 -130z m-797 155 c58 -26 109 -72
95 -86 -7 -8 -99 34 -135 62 -18 13 -33 31 -33 39 0 18 -2 19 73 -15z m5667
-440 c-10 -142 -29 -285 -37 -278 -4 4 22 495 35 657 7 93 7 91 10 -70 2 -91
-2 -230 -8 -309z m-7144 429 c99 -24 414 -181 451 -224 23 -28 24 -30 6 -36
-51 -19 -210 -32 -263 -22 -54 10 -57 9 -133 -30 -111 -58 -153 -92 -184 -146
-25 -45 -31 -50 -82 -60 -89 -19 -154 -58 -278 -170 -105 -94 -119 -103 -147
-98 -17 2 -80 8 -141 11 -73 5 -125 13 -153 26 -57 24 -142 87 -142 104 0 21
51 59 157 117 93 50 111 66 338 295 132 133 249 244 260 246 58 13 236 6 311
-13z m5848 -82 c-11 -82 -25 -104 -20 -31 4 57 11 83 22 83 3 0 2 -24 -2 -52z
m1033 -133 c-5 -112 -37 -341 -45 -317 -2 7 1 58 7 115 7 56 15 167 18 247 6
118 8 138 16 105 5 -22 6 -89 4 -150z m-5422 154 c51 -19 97 -61 82 -75 -10
-11 -104 26 -131 51 -26 24 -34 45 -16 45 5 0 34 -9 65 -21z m235 -71 c32 -69
24 -93 -19 -66 -14 9 -18 19 -14 43 3 22 0 37 -12 48 -15 16 -15 17 5 17 15 0
26 -12 40 -42z m3727 10 c-3 -8 -6 -5 -6 6 -1 11 2 17 5 13 3 -3 4 -12 1 -19z
m2789 -158 c19 -190 32 -881 17 -865 -6 6 -15 194 -22 425 -7 228 -14 462 -17
520 -6 146 2 115 22 -80z m-6778 156 c15 -8 41 -29 57 -46 l30 -33 -30 7 c-43
11 -136 66 -130 77 9 13 42 11 73 -5z m4249 -18 c-3 -8 -6 -5 -6 6 -1 11 2 17
5 13 3 -3 4 -12 1 -19z m-6383 -70 c9 -34 8 -35 -16 -34 -17 1 -25 -7 -32 -29
-7 -24 -22 -36 -67 -57 l-59 -27 0 35 c0 29 3 34 25 34 16 0 35 13 57 41 29
36 56 56 79 58 4 1 9 -9 13 -21z m7750 -24 c9 -3 16 -13 16 -21 0 -21 -44 -12
-48 10 -4 18 6 21 32 11z m1254 -464 c6 -179 7 -361 3 -405 -6 -76 -34 689
-30 825 4 125 18 -100 27 -420z m-6437 388 c56 -45 473 -328 484 -328 17 0 0
32 -31 55 -57 44 -32 40 63 -9 79 -41 174 -116 147 -116 -6 0 -21 12 -35 26
-13 14 -37 36 -54 47 l-30 22 35 -50 c51 -72 121 -140 158 -153 38 -13 44 4
12 33 -23 21 -28 44 -5 25 12 -10 22 -10 39 -2 23 10 23 9 18 -34 -6 -58 10
-81 108 -150 77 -54 130 -108 130 -132 0 -7 -2 -12 -6 -12 -8 0 -124 79 -171
117 -29 23 -43 29 -43 20 0 -16 42 -55 112 -104 52 -36 79 -73 53 -73 -30 0
-86 30 -162 85 -41 30 -81 55 -87 55 -11 -1 41 -51 113 -108 22 -18 46 -42 51
-52 18 -34 -23 -25 -70 15 -23 19 -46 35 -51 35 -17 0 -9 -27 16 -50 31 -29
33 -45 4 -29 -12 6 -32 9 -46 6 -18 -3 -27 2 -38 24 -8 15 -29 37 -47 50 -51
34 -98 81 -98 97 0 19 19 11 83 -36 94 -70 122 -63 37 9 -65 55 -68 95 -5 53
30 -20 31 -12 5 30 -19 32 -92 81 -103 70 -3 -4 -1 -14 6 -25 6 -10 8 -21 5
-25 -10 -9 -266 -51 -392 -63 -60 -6 -179 -11 -265 -11 l-155 0 102 -104 c56
-57 102 -108 102 -115 0 -7 -9 -9 -26 -5 -17 4 -29 2 -34 -6 -12 -20 -104 52
-220 170 -78 80 -98 96 -111 87 -12 -8 -27 -6 -54 7 -76 36 -54 -5 72 -136 51
-54 93 -103 93 -109 0 -24 -96 62 -180 162 l-91 108 -35 -15 c-34 -14 -70 -12
-111 8 -18 9 -27 8 -41 -5 -15 -14 -30 -16 -80 -11 -48 5 -67 3 -87 -10 -23
-15 -28 -15 -54 -1 -27 14 -31 13 -43 -3 -10 -13 -28 -17 -75 -17 -54 0 -63
-3 -63 -18 0 -14 -4 -16 -19 -7 -27 14 -51 13 -51 -3 0 -14 -4 -14 -180 -4
-36 2 -73 7 -82 12 -14 5 -18 2 -18 -14 0 -29 -15 -26 -39 7 -19 27 -27 29
-100 35 -94 7 -138 27 -155 68 -7 16 -15 27 -18 23 -11 -10 -47 16 -63 46 -8
16 -25 30 -37 32 -28 4 -38 39 -40 138 -2 82 12 135 49 191 20 30 39 42 106
67 178 67 228 77 402 77 160 0 160 0 229 -32 81 -39 92 -39 261 -11 104 17
141 19 188 11 44 -7 65 -6 84 4 22 11 31 9 83 -17 74 -37 86 -37 104 -1 15 28
16 28 73 19 32 -5 64 -11 72 -13 7 -3 19 -1 26 5 7 6 45 14 85 18 78 7 102 25
50 36 -39 7 -35 29 6 36 17 3 33 14 39 27 8 19 12 20 25 9 8 -7 40 -33 71 -58z
m2675 4 c38 -25 39 -78 1 -119 -54 -59 -80 0 -40 90 17 39 21 42 39 29z m2502
-4 c18 -18 14 -38 -8 -38 -15 0 -20 7 -20 25 0 27 9 32 28 13z m-99 -104 c-6
-54 -14 -101 -17 -104 -7 -7 7 190 14 202 13 21 14 -4 3 -98z m1501 26 c0 -19
-17 -36 -27 -26 -3 3 -2 17 1 31 7 28 26 25 26 -5z m-1376 -14 c7 -29 -12 -88
-28 -83 -11 4 -13 63 -3 91 9 23 24 20 31 -8z m-986 -72 c127 -25 150 -34 162
-63 9 -23 15 -26 53 -23 44 4 48 1 152 -82 25 -20 48 -30 71 -30 28 0 36 -5
48 -30 60 -131 70 -147 97 -163 19 -12 27 -23 23 -33 -16 -41 -13 -73 15 -164
30 -94 37 -136 26 -136 -3 0 -22 9 -43 19 -52 27 -118 95 -159 167 l-36 61
-101 18 -101 19 -62 62 c-75 74 -162 134 -345 234 -131 72 -136 76 -120 94 9
10 40 29 67 42 60 29 140 31 253 8z m-1611 -40 c5 -15 -41 -74 -59 -74 -15 0
-8 32 15 60 25 33 35 36 44 14z m2578 -39 c0 -25 -6 -42 -17 -49 -26 -16 -32
-1 -18 49 15 54 35 54 35 0z m-388 -7 c-3 -8 -6 -5 -6 6 -1 11 2 17 5 13 3 -3
4 -12 1 -19z m-1797 -28 c14 -26 5 -40 -26 -40 -29 0 -42 24 -24 45 17 21 37
19 50 -5z m-95 -20 c16 -18 17 -22 4 -34 -40 -38 -717 -472 -777 -498 -24 -11
-69 -22 -100 -25 -31 -2 -74 -13 -94 -24 -21 -11 -65 -22 -100 -24 -35 -3 -98
-7 -140 -10 l-78 -5 0 30 c0 16 5 41 12 55 11 24 15 25 94 25 185 0 389 64
589 185 44 27 156 98 249 158 153 99 301 186 317 187 3 0 14 -9 24 -20z m2265
-69 c0 -20 -9 -103 -20 -186 -12 -82 -20 -175 -18 -205 2 -52 0 -56 -32 -77
-18 -13 -41 -23 -50 -23 -10 0 -30 -19 -45 -42 -37 -57 -66 -88 -82 -88 -20 0
-16 21 17 91 29 63 29 65 15 124 -8 33 -14 66 -15 73 0 7 22 37 49 65 27 29
50 61 53 72 6 33 23 17 23 -22 0 -41 20 -56 28 -21 3 13 13 77 22 143 20 145
20 146 40 139 10 -4 15 -19 15 -43z m-8259 -84 c13 -71 0 -148 -40 -232 -28
-60 -87 -138 -123 -163 -18 -13 -19 -12 -16 13 3 24 -6 33 -86 81 -49 30 -113
61 -142 71 -30 9 -54 19 -54 22 1 10 142 117 211 160 60 37 229 114 236 107 2
-1 8 -28 14 -59z m9775 -362 c4 -148 3 -333 -2 -410 l-9 -140 -6 220 c-4 121
-6 335 -6 475 0 315 12 239 23 -145z m-9649 361 c20 -17 36 -23 56 -19 72 14
117 -37 117 -132 0 -65 21 -73 31 -12 9 58 16 53 22 -18 7 -77 27 -119 66
-140 21 -10 28 -20 24 -33 -3 -14 5 -25 31 -41 38 -24 47 -41 21 -41 -30 0
-80 32 -135 86 -59 57 -94 75 -124 64 -17 -6 -18 -7 -3 -13 14 -5 17 -20 17
-76 l0 -69 -127 2 -128 3 3 31 c4 35 1 37 -31 20 -19 -10 -18 -8 5 20 61 72
108 215 108 326 0 36 4 66 9 66 5 0 22 -11 38 -24z m4229 -30 c10 -25 -17 -57
-64 -78 -26 -11 -54 -27 -63 -35 -14 -12 -19 -12 -33 2 -9 9 -16 24 -16 33 0
9 -3 27 -6 40 -5 18 -2 22 17 22 13 1 38 7 54 15 41 18 104 19 111 1z m2842
-40 c4 -16 2 -16 -27 -1 -17 8 -31 17 -31 19 0 3 -3 12 -7 22 -6 16 -4 16 28
-2 18 -11 35 -28 37 -38z m-490 -66 c7 -8 17 -24 24 -35 10 -18 10 -19 -6 -6
-9 8 -31 33 -48 55 -26 34 -28 37 -8 21 14 -11 30 -27 38 -35z m-2634 -19 c44
-31 109 -101 101 -109 -16 -16 -215 133 -215 160 0 12 64 -17 114 -51z m6104
-69 c2 -39 -1 -62 -8 -62 -5 0 -10 15 -10 34 0 18 -3 48 -7 66 -5 25 -3 32 8
28 10 -3 15 -24 17 -66z m-7742 -199 c-20 -20 -177 143 -176 182 1 6 41 -32
91 -84 50 -51 88 -95 85 -98z m164 8 c31 -45 16 -38 -56 25 -65 57 -104 109
-104 138 0 16 117 -104 160 -163z m-2 104 c40 -37 102 -116 102 -130 0 -15
-62 29 -100 72 -42 48 -90 116 -90 129 0 8 27 -13 88 -71z m1056 16 c35 -32
74 -64 87 -72 43 -22 1 -22 -46 1 -41 20 -125 101 -125 121 0 20 24 6 84 -50z
m-1231 -13 c71 -72 133 -148 119 -148 -16 0 -141 120 -173 166 -43 62 -20 54
54 -18z m1183 -30 c19 -17 40 -40 45 -51 10 -18 8 -18 -32 4 -47 26 -139 111
-139 129 0 12 72 -35 126 -82z m-1287 -42 c28 -35 51 -67 51 -71 0 -10 -65 38
-113 84 -38 36 -67 79 -67 101 0 20 77 -48 129 -114z m447 72 c108 -87 181
-189 94 -132 -59 40 -188 184 -164 184 3 0 35 -23 70 -52z m753 -44 c31 -29
53 -55 49 -59 -17 -18 -178 113 -178 145 0 16 70 -31 129 -86z m-409 -38 c30
-31 51 -56 46 -56 -28 0 -176 139 -176 165 0 11 70 -48 130 -109z m303 45 c37
-30 65 -56 62 -59 -2 -2 -16 -1 -30 2 -25 6 -125 101 -125 119 0 11 15 1 93
-62z m-1256 44 c21 -14 93 -116 93 -131 0 -11 -54 41 -102 99 -39 46 -35 63 9
32z m1040 -15 c38 -28 82 -80 67 -80 -19 0 -92 52 -112 79 -30 40 -9 41 45 1z
m155 -55 c54 -45 58 -55 26 -55 -22 0 -138 112 -138 132 0 11 48 -21 112 -77z
m-5453 22 c0 -33 -2 -38 -9 -22 -12 28 -12 78 0 70 6 -3 10 -25 9 -48z m4252
-39 c15 -28 -6 -22 -46 13 -19 17 -35 40 -35 52 0 19 4 17 36 -14 20 -18 40
-42 45 -51z m-4297 40 c16 -40 27 -178 14 -178 -20 0 -48 86 -48 148 0 69 13
81 34 30z m4191 -10 c50 -59 24 -62 -31 -4 -36 37 -41 46 -25 46 11 0 36 -19
56 -42z m-821 14 c11 14 18 15 66 2 30 -8 65 -14 77 -14 26 0 27 -3 13 -30
-18 -33 -78 -62 -131 -63 -52 -1 -86 17 -55 29 16 6 15 9 -5 30 -12 13 -31 24
-41 24 -23 0 -23 16 -1 28 12 7 24 5 41 -6 22 -15 25 -15 36 0z m585 -17 c33
-38 36 -45 22 -45 -13 0 -71 56 -71 69 0 20 18 11 49 -24z m189 -40 c-7 -8
-68 53 -68 68 0 6 17 -5 37 -25 20 -21 34 -40 31 -43z m-2392 46 c22 -10 57
-38 77 -61 41 -48 38 -73 -11 -91 -37 -14 -136 -14 -205 0 -63 14 -62 4 -13
114 26 57 26 57 68 57 24 0 61 -9 84 -19z m2314 -31 c8 -16 8 -20 -3 -20 -17
0 -67 45 -67 60 0 16 58 -17 70 -40z m-4120 -39 c0 -25 3 -55 6 -66 5 -18 -4
-22 -80 -39 -46 -10 -89 -15 -95 -12 -6 4 -16 -8 -24 -26 -27 -65 -84 -97 -67
-38 28 99 103 195 183 234 48 25 53 25 64 9 7 -9 13 -37 13 -62z m12388 -231
c16 -478 -21 -917 -119 -1410 -26 -127 -97 -391 -109 -404 -6 -6 -13 1 -19 17
-10 27 -8 40 28 139 12 32 21 79 21 105 0 27 16 125 36 218 49 240 71 365 83
480 18 168 42 605 48 890 8 314 19 301 31 -35z m-2289 114 c-15 -16 -26 -21
-34 -14 -19 16 -65 117 -65 142 1 20 9 14 61 -41 l60 -63 -22 -24z m-6159 74
c66 -19 80 -26 65 -33 -29 -12 -270 -19 -381 -10 -96 7 -96 7 -77 27 11 10 37
26 59 34 57 21 225 12 334 -18z m554 6 c9 -3 16 -13 16 -21 0 -20 -34 -12 -38
10 -4 19 -1 20 22 11z m5291 -56 c14 -6 40 -32 56 -57 l31 -44 -31 -66 c-38
-83 -72 -126 -110 -139 -28 -10 -30 -9 -94 76 -69 94 -127 181 -127 194 0 6
78 32 155 51 27 7 89 -1 120 -15z m2272 -203 c4 -110 1 -180 -11 -263 -24
-161 -36 -180 -31 -47 3 61 8 200 11 310 8 237 23 237 31 0z m-2277 -230 c12
-15 9 -89 -5 -103 -12 -12 -25 23 -25 71 0 49 9 58 30 32z m405 -55 c7 -23 -9
-56 -35 -70 -16 -9 -19 -6 -22 22 -2 18 1 45 5 60 7 23 12 26 27 18 10 -6 21
-19 25 -30z m1965 -1509 c0 -5 3 -16 6 -25 3 -9 1 -16 -4 -16 -16 0 -43 30
-37 41 8 12 35 12 35 0z m-40 -43 c0 -35 -93 -198 -140 -246 -50 -50 -150
-113 -150 -93 0 6 27 31 60 56 66 51 105 97 114 135 7 29 1 39 -36 63 -18 11
-28 26 -28 42 0 23 4 25 48 25 26 0 58 7 72 14 32 18 60 20 60 4z"/>
<path d="M5887 9533 c-44 -64 -70 -134 -75 -204 l-4 -66 32 -12 c18 -6 48 -22
66 -36 40 -31 55 -31 82 -2 30 32 28 71 -8 184 -16 51 -30 108 -30 127 0 29
-13 46 -34 46 -2 0 -15 -17 -29 -37z"/>
<path d="M5364 9147 c-48 -43 -101 -133 -82 -140 7 -2 31 2 53 10 21 7 45 11
52 9 21 -8 27 16 8 30 -10 7 -22 15 -28 17 -5 1 2 22 17 46 37 59 28 72 -20
28z"/>
<path d="M5640 8523 c0 -21 4 -23 55 -23 42 0 55 4 55 15 0 15 -17 21 -77 28
-29 3 -33 1 -33 -20z"/>
<path d="M6221 5493 c42 -60 100 -118 140 -138 l32 -17 -24 34 c-34 48 -154
168 -168 168 -7 0 2 -21 20 -47z"/>
<path d="M5372 5218 c55 -71 112 -124 146 -136 31 -10 28 -6 -35 64 -91 101
-179 158 -111 72z"/>
<path d="M2736 5358 c-4 -24 -19 -74 -33 -113 -32 -88 -43 -135 -32 -135 12 0
32 38 44 84 8 33 16 41 43 48 38 10 39 14 10 38 -20 16 -21 21 -11 55 11 36 8
65 -7 65 -4 0 -10 -19 -14 -42z"/>
<path d="M2815 10280 c-16 -18 -16 -22 -1 -66 26 -76 21 -191 -10 -261 -29
-67 -54 -96 -95 -113 -25 -11 -32 -9 -60 14 -36 30 -45 31 -87 11 -30 -15 -31
-18 -25 -64 3 -29 -3 -97 -16 -172 -17 -101 -19 -135 -11 -178 15 -79 65 -164
135 -229 151 -142 319 -157 423 -38 52 60 58 101 33 251 -12 72 -21 140 -21
152 0 13 15 43 34 67 37 49 71 138 62 161 -4 11 -22 15 -64 15 -57 0 -59 1
-55 24 4 18 -3 28 -32 46 -26 16 -34 27 -29 39 14 32 16 139 4 178 -19 57 -65
119 -115 153 -24 16 -45 30 -48 30 -2 0 -12 -9 -22 -20z m95 -367 c-7 -21 -18
-44 -24 -52 -8 -11 -8 -15 2 -19 7 -2 35 -37 62 -77 28 -41 57 -78 67 -83 15
-9 15 -12 0 -51 -23 -57 -21 -104 9 -201 28 -88 28 -133 -1 -176 -27 -41 -62
-57 -123 -57 -87 1 -166 35 -233 102 -60 60 -72 90 -58 149 5 22 4 66 -3 107
-10 68 -7 209 5 221 3 3 16 -1 29 -10 31 -22 84 -20 124 5 28 17 104 106 104
122 0 2 7 21 16 42 21 51 41 33 24 -22z"/>
<path d="M6960 8440 c0 -13 59 -79 81 -91 30 -16 22 5 -22 55 -39 44 -59 57
-59 36z"/>
<path d="M6200 8111 c0 -15 6 -21 21 -21 14 0 19 5 17 17 -5 26 -38 29 -38 4z"/>
<path d="M6190 8040 c0 -11 7 -20 15 -20 8 0 15 9 15 20 0 11 -7 20 -15 20 -8
0 -15 -9 -15 -20z"/>
<path d="M6260 8025 c0 -8 2 -15 4 -15 2 0 11 -3 20 -6 12 -4 16 0 16 15 0 14
-6 21 -20 21 -11 0 -20 -7 -20 -15z"/>
<path d="M6926 8020 c-94 -20 -102 -24 -108 -54 -4 -25 -28 -33 -28 -11 0 14
-6 16 -27 11 -120 -29 -147 -27 -316 25 -59 18 -110 29 -114 26 -3 -4 2 -23
13 -43 17 -32 22 -35 54 -31 23 3 49 -3 75 -16 62 -32 176 -34 310 -7 61 13
142 24 180 24 61 1 73 4 92 26 30 33 29 48 -2 42 -18 -3 -25 0 -25 12 0 19 7
19 -104 -4z"/>
<path d="M5890 7876 c0 -18 27 -39 40 -31 5 3 10 15 10 26 0 14 -7 19 -25 19
-15 0 -25 -6 -25 -14z"/>
<path d="M5850 7790 c0 -17 9 -78 21 -133 13 -65 19 -127 17 -169 -2 -38 -1
-68 3 -68 3 0 13 8 22 18 20 22 22 78 6 168 -9 51 -8 68 4 92 12 26 12 30 -2
40 -14 10 -14 12 -1 21 8 6 20 12 25 15 19 7 -21 37 -58 43 -36 5 -37 5 -37
-27z"/>
<path d="M6832 7368 c28 -51 66 -68 46 -21 -16 38 -38 63 -55 63 -11 0 -9 -10
9 -42z"/>
<path d="M5930 7357 c0 -16 28 -57 55 -79 11 -10 59 -38 107 -63 60 -31 100
-60 125 -90 20 -25 43 -45 49 -45 7 0 34 -20 62 -45 28 -25 66 -52 85 -60 32
-13 36 -13 39 1 2 13 19 16 90 18 79 1 90 4 130 31 23 17 60 53 80 80 37 48
104 192 95 202 -3 2 -21 -10 -42 -28 -36 -32 -81 -110 -104 -181 -13 -38 -31
-51 -31 -23 0 22 -15 18 -32 -7 -13 -19 -27 -23 -89 -28 l-74 -6 -150 90
c-179 106 -336 208 -354 230 -16 19 -41 21 -41 3z"/>
<path d="M7216 7025 c-9 -9 -21 -35 -28 -58 -9 -30 -36 -65 -100 -130 -48 -49
-88 -93 -88 -98 0 -18 83 33 126 78 37 37 124 190 124 216 0 12 -18 8 -34 -8z"/>
<path d="M6820 6998 c-41 -29 -75 -72 -66 -87 21 -33 116 8 146 62 13 24 13
29 0 37 -23 15 -44 12 -80 -12z"/>
<path d="M6935 6908 c-24 -13 -85 -69 -85 -79 0 -3 27 -6 59 -5 52 1 64 5 91
31 18 17 36 38 41 48 9 15 4 17 -38 17 -26 0 -57 -6 -68 -12z"/>
<path d="M5740 6837 c0 -17 50 -61 58 -52 7 7 -30 57 -46 63 -7 2 -12 -3 -12
-11z"/>
<path d="M7201 6806 c-53 -19 -84 -76 -41 -76 13 0 20 -7 20 -20 0 -18 3 -19
21 -10 22 12 49 66 49 100 0 23 -2 23 -49 6z"/>
<path d="M3460 6767 c14 -7 50 -29 80 -49 30 -20 69 -39 85 -42 l30 -6 -40 35
c-50 44 -113 75 -151 75 l-29 0 25 -13z"/>
<path d="M5870 6718 c93 -84 276 -188 420 -240 99 -35 256 -32 460 9 85 18
169 33 185 35 30 4 29 5 -19 27 -89 42 -203 26 -268 -36 -35 -33 -110 -41
-228 -24 -150 22 -271 74 -473 202 -60 38 -112 69 -115 69 -4 -1 13 -19 38
-42z"/>
<path d="M3500 6659 c110 -77 223 -139 251 -139 8 0 -6 13 -31 28 -25 15 -79
50 -120 78 -92 63 -182 114 -200 114 -8 0 38 -36 100 -81z"/>
<path d="M3364 6679 c59 -70 178 -154 246 -174 l25 -7 -25 18 c-14 10 -67 51
-118 91 -52 41 -108 81 -125 89 l-31 17 28 -34z"/>
<path d="M3300 6661 c19 -37 201 -158 200 -134 -1 11 -138 117 -178 137 -33
17 -33 17 -22 -3z"/>
<path d="M3234 6611 c18 -20 79 -52 126 -66 l25 -7 -25 27 c-30 32 -91 65
-121 65 -21 0 -21 -1 -5 -19z"/>
<path d="M3103 6593 c-9 -6 7 -25 53 -61 70 -56 84 -61 84 -36 0 13 7 15 34
11 34 -5 35 -5 24 19 -6 13 -26 34 -45 45 -35 22 -130 35 -150 22z"/>
<path d="M6377 6399 c17 -17 34 -23 69 -23 47 -1 70 16 39 28 -9 3 -42 9 -73
12 l-57 6 22 -23z"/>
<path d="M2893 6283 c-28 -5 -29 -19 -3 -61 26 -43 47 -50 66 -23 8 11 24 21
35 21 25 0 24 25 -1 50 -19 19 -47 23 -97 13z"/>
<path d="M2580 6001 c13 -26 43 -28 38 -3 -2 9 -14 18 -26 20 -21 3 -22 1 -12
-17z"/>
<path d="M12635 5930 c-4 -7 -3 -16 3 -22 14 -14 45 -2 40 15 -6 16 -34 21
-43 7z"/>
<path d="M12654 5865 c-3 -8 -3 -19 1 -25 11 -17 35 -11 35 9 0 23 -29 36 -36
16z"/>
<path d="M2660 5805 c24 -25 80 -35 80 -14 0 11 -60 39 -86 39 -15 0 -14 -4 6
-25z"/>
<path d="M12670 5770 c0 -11 6 -20 14 -20 21 0 31 21 15 31 -22 14 -29 11 -29
-11z"/>
<path d="M8920 5701 c0 -21 27 -41 54 -41 32 0 7 43 -31 55 -19 5 -23 2 -23
-14z"/>
<path d="M1669 5441 c-19 -16 -24 -28 -22 -63 1 -45 28 -114 62 -157 14 -19
24 -22 44 -17 l27 6 -22 53 c-12 28 -31 85 -43 125 l-22 73 -24 -20z"/>
<path d="M1435 5186 c-18 -13 -18 -16 -5 -42 27 -50 108 -124 164 -150 43 -19
68 -24 112 -22 55 3 57 4 40 21 -11 10 -33 17 -56 17 -31 0 -48 8 -87 42 -26
23 -68 50 -93 61 -56 25 -55 24 -40 42 12 15 8 45 -8 45 -4 0 -17 -6 -27 -14z"/>
<path d="M1092 4940 c2 -6 47 -12 113 -14 61 -2 166 -7 235 -10 70 -4 138 -3
155 2 24 7 6 10 -85 15 -287 16 -422 18 -418 7z"/>
<path d="M10764 2969 c-3 -6 -2 -15 3 -20 13 -13 43 -1 43 17 0 16 -36 19 -46
3z"/>
</g>
</svg>
