<?xml version="1.0" standalone="no"?>
<!DOCTYPE svg PUBLIC "-//W3C//DTD SVG 20010904//EN"
 "http://www.w3.org/TR/2001/REC-SVG-20010904/DTD/svg10.dtd">
<svg version="1.0" xmlns="http://www.w3.org/2000/svg"
 width="1280.000000pt" height="640.000000pt" viewBox="0 0 1280.000000 640.000000"
 preserveAspectRatio="xMidYMid meet">
<metadata>
Created by potrace 1.15, written by Peter Selinger 2001-2017
</metadata>
<g transform="translate(0.000000,640.000000) scale(0.100000,-0.100000)"
fill="#000000" stroke="none">
<path d="M6365 6178 c-43 -23 -58 -74 -35 -117 16 -31 65 -46 100 -31 67 28
69 114 3 148 -27 15 -42 15 -68 0z"/>
<path d="M7114 6100 c-12 -4 -31 -21 -43 -36 -64 -82 34 -198 127 -150 38 20
52 44 52 91 0 47 -13 71 -50 90 -32 17 -54 18 -86 5z"/>
<path d="M7789 5817 c-39 -26 -59 -60 -59 -102 0 -42 20 -76 59 -102 42 -28
86 -29 129 -3 83 51 74 179 -15 216 -46 20 -75 17 -114 -9z"/>
<path d="M5715 5348 c-57 -121 -106 -250 -135 -358 -9 -33 -15 -40 -28 -34 -9
4 -60 22 -112 40 -110 38 -99 46 -125 -92 -9 -49 -18 -94 -20 -100 -2 -8 -33
-5 -99 11 -116 29 -313 55 -408 55 l-69 0 6 -82 c11 -141 35 -304 58 -396 l22
-89 -109 -22 c-60 -12 -112 -24 -117 -27 -5 -2 9 -54 30 -115 26 -73 35 -111
28 -113 -89 -23 -299 -100 -396 -147 -69 -33 -127 -61 -129 -64 -14 -14 219
-324 307 -410 23 -21 41 -42 41 -45 0 -4 -38 -39 -85 -79 -47 -40 -85 -76 -85
-81 0 -5 40 -44 88 -85 l89 -76 -55 -57 c-80 -83 -162 -186 -237 -297 l-66
-97 30 -19 c92 -56 400 -179 447 -179 97 0 -369 -146 -638 -199 -137 -28 -311
-51 -319 -43 -3 4 -14 47 -24 95 -10 49 -24 95 -32 103 -30 30 -93 4 -93 -39
0 -9 29 -50 65 -90 l64 -74 -81 -8 c-44 -3 -84 -3 -88 2 -5 4 -17 51 -29 103
-20 94 -35 120 -71 120 -23 0 -50 -32 -50 -58 0 -12 28 -52 66 -94 l65 -73
-58 -3 c-84 -5 -122 4 -128 31 -3 12 -12 55 -20 96 -9 41 -20 80 -26 88 -19
22 -67 16 -84 -11 -15 -22 -15 -28 -2 -53 8 -15 25 -37 37 -48 12 -11 36 -37
53 -59 l31 -38 -75 7 c-41 4 -81 11 -89 15 -10 5 -22 43 -34 98 -10 50 -23 98
-30 108 -17 22 -66 21 -83 -2 -22 -30 -15 -53 34 -107 26 -29 56 -62 66 -74
22 -25 31 -25 -89 2 l-70 16 -19 92 c-9 51 -24 102 -32 114 -25 42 -93 23 -93
-26 0 -20 17 -46 61 -95 34 -37 59 -69 56 -72 -2 -3 -41 7 -85 22 l-81 27 -16
76 c-26 122 -36 146 -69 149 -32 4 -66 -22 -66 -49 0 -10 27 -48 60 -85 33
-37 58 -69 56 -72 -2 -2 -39 14 -82 35 l-79 38 -21 97 c-11 53 -26 104 -33
112 -29 34 -91 6 -91 -41 0 -11 27 -50 61 -87 33 -36 58 -66 55 -66 -3 0 -66
36 -139 79 -186 112 -264 199 -309 345 -30 98 -23 236 17 323 34 76 111 153
192 191 51 24 70 27 153 26 108 -1 163 -19 239 -81 67 -56 101 -116 101 -180
0 -70 -18 -109 -68 -155 -44 -40 -82 -51 -152 -46 l-45 3 3 38 c3 32 -2 43
-32 73 -33 33 -40 36 -77 31 -49 -7 -87 -39 -95 -82 -13 -73 61 -138 131 -115
24 8 51 8 92 1 68 -12 114 -4 175 32 55 32 72 51 99 112 30 67 30 147 0 207
-30 63 -118 143 -198 181 -63 30 -76 32 -173 32 -102 0 -109 -1 -182 -38 -168
-83 -251 -221 -250 -417 0 -115 30 -214 93 -309 22 -32 22 -34 4 -27 -272 115
-623 147 -832 76 -79 -28 -185 -102 -240 -169 -171 -209 -172 -489 -3 -658
135 -135 329 -167 498 -82 116 58 175 142 176 249 0 148 -113 255 -263 249
-38 -2 -75 2 -88 9 -44 24 -101 11 -135 -32 -22 -27 -23 -85 -2 -115 21 -30
71 -51 106 -44 38 7 76 52 80 93 3 34 4 35 50 38 86 6 171 -58 193 -146 27
-102 -20 -190 -132 -250 -152 -81 -334 -52 -451 72 -74 79 -96 133 -101 245
-6 162 41 275 161 387 110 104 214 137 428 138 269 0 507 -70 777 -230 54 -32
138 -80 187 -105 l89 -47 -74 -12 c-149 -24 -311 -128 -389 -250 -77 -120
-102 -276 -64 -397 38 -121 138 -229 254 -275 80 -32 231 -31 314 1 178 70
230 267 109 411 -31 37 -114 80 -157 80 -15 0 -41 11 -58 25 -40 34 -100 34
-133 1 -95 -95 31 -237 134 -151 16 14 31 36 33 48 3 19 8 22 38 19 55 -4 108
-46 136 -105 31 -68 30 -111 -3 -178 -25 -48 -35 -58 -98 -89 -64 -32 -77 -35
-160 -35 -80 0 -97 4 -155 31 -81 39 -142 100 -183 184 -30 60 -32 72 -32 165
0 94 2 104 36 175 63 132 162 219 303 268 65 22 82 24 186 19 90 -4 143 -13
245 -42 233 -65 331 -78 590 -79 370 -1 686 56 1104 199 73 25 135 44 137 42
2 -2 -9 -43 -25 -90 -16 -48 -26 -89 -23 -91 6 -4 215 -46 227 -46 1 0 -5 -33
-16 -72 -39 -150 -79 -482 -61 -500 18 -18 365 25 499 62 46 12 66 14 68 6 2
-6 13 -58 24 -115 12 -58 23 -106 25 -108 1 -2 53 14 114 35 l111 38 21 -70
c41 -134 73 -217 134 -342 l61 -125 81 54 c124 82 201 143 292 231 52 50 86
76 90 69 4 -6 38 -47 76 -92 55 -64 72 -79 83 -69 7 6 43 46 80 89 l65 78 87
-79 c94 -86 173 -148 294 -229 l78 -52 63 131 c60 122 146 356 146 395 0 12 5
15 18 10 70 -29 208 -72 214 -67 5 5 48 207 48 226 0 1 39 -8 88 -20 97 -24
273 -50 400 -58 l82 -5 0 77 c0 119 -45 408 -75 483 -5 13 12 19 106 37 61 12
114 24 117 27 4 4 -7 47 -24 96 -17 49 -27 89 -22 89 4 0 67 -20 140 -45 417
-143 734 -200 1103 -199 259 1 357 14 590 79 102 29 155 38 245 42 104 5 121
3 186 -19 141 -49 240 -136 303 -268 34 -71 36 -81 36 -175 0 -93 -2 -105 -32
-165 -41 -84 -102 -145 -183 -184 -58 -27 -75 -31 -155 -31 -83 0 -96 3 -160
35 -63 31 -73 41 -97 89 -34 67 -35 110 -4 178 28 59 81 101 136 105 30 3 35
0 38 -19 2 -12 17 -34 33 -48 103 -86 229 56 134 151 -33 33 -93 33 -133 -1
-17 -14 -43 -25 -58 -25 -43 0 -126 -43 -158 -81 -121 -142 -67 -340 110 -410
83 -32 234 -33 314 -1 116 46 216 154 254 275 38 121 13 277 -64 397 -78 122
-240 226 -389 250 l-74 12 89 47 c49 25 133 73 187 105 270 160 508 230 777
230 217 -1 319 -34 432 -142 117 -111 162 -221 156 -380 -3 -83 -7 -105 -32
-155 -55 -108 -168 -191 -283 -207 -165 -23 -345 73 -372 198 -26 124 75 248
197 240 46 -3 47 -4 50 -38 4 -41 42 -86 80 -93 35 -7 85 14 106 44 21 30 20
88 -2 115 -34 43 -91 56 -135 32 -13 -7 -50 -11 -88 -9 -106 4 -184 -39 -234
-131 -37 -68 -40 -161 -8 -224 47 -90 156 -162 281 -184 225 -41 450 121 493
355 27 146 -34 333 -145 449 -102 105 -205 156 -364 177 -193 26 -478 -18
-686 -106 -16 -7 -15 -2 8 36 66 106 88 185 87 304 -1 197 -81 329 -249 412
-73 37 -80 38 -182 38 -97 0 -110 -2 -173 -32 -80 -38 -168 -118 -198 -181
-30 -60 -30 -140 0 -207 27 -61 44 -80 99 -112 61 -36 107 -44 175 -32 41 7
68 7 92 -1 70 -23 144 42 131 115 -8 43 -46 75 -95 82 -37 5 -44 2 -77 -31
-30 -30 -35 -41 -32 -73 l3 -38 -45 -3 c-70 -5 -108 6 -152 46 -50 46 -68 85
-68 155 0 64 34 124 101 180 76 62 131 80 239 81 83 1 102 -2 153 -26 81 -38
158 -115 192 -191 40 -87 47 -225 17 -323 -45 -146 -123 -233 -309 -345 -73
-43 -136 -79 -139 -79 -3 0 22 30 55 66 36 40 61 76 61 89 0 45 -63 73 -91 39
-7 -8 -22 -59 -33 -112 l-21 -97 -79 -38 c-43 -21 -80 -37 -82 -35 -2 3 23 35
56 72 33 37 60 75 60 85 0 27 -34 53 -66 49 -33 -3 -43 -27 -69 -149 l-16 -76
-81 -27 c-44 -15 -83 -25 -85 -22 -3 3 22 35 56 72 44 49 61 75 61 95 0 49
-68 68 -93 27 -8 -13 -23 -64 -32 -115 l-19 -92 -70 -16 c-120 -27 -111 -27
-89 -2 10 12 40 45 66 74 49 54 56 77 34 107 -17 23 -66 24 -83 2 -7 -10 -20
-58 -30 -108 -12 -55 -24 -93 -34 -98 -8 -4 -48 -11 -89 -15 l-75 -7 31 38
c17 22 41 48 53 59 12 11 29 33 37 48 13 25 13 31 -2 53 -17 27 -65 33 -84 11
-6 -8 -17 -47 -26 -88 -8 -41 -17 -84 -20 -96 -6 -27 -44 -36 -128 -31 l-58 3
65 73 c70 77 80 106 48 135 -48 43 -79 13 -103 -103 -12 -52 -24 -99 -29 -103
-4 -5 -44 -5 -88 -2 l-81 8 64 74 c36 40 65 82 65 92 0 23 -31 51 -58 51 -34
0 -48 -24 -67 -117 -10 -48 -21 -91 -24 -95 -14 -15 -332 39 -541 94 -140 36
-418 127 -425 138 -3 5 9 11 27 15 97 21 448 173 448 195 0 32 -169 260 -274
368 l-80 82 40 32 c21 18 62 54 89 80 l50 47 -42 43 c-24 24 -62 59 -86 78
l-44 34 93 104 c96 107 254 324 254 348 0 27 -301 158 -460 200 -36 10 -66 18
-68 19 -1 1 14 48 33 104 19 56 35 107 35 115 0 10 -34 20 -112 35 -61 12
-113 22 -114 24 -1 1 8 46 21 99 28 116 55 315 55 405 l0 66 -122 -6 c-124 -6
-302 -34 -393 -61 -27 -9 -50 -14 -52 -13 -1 2 -12 52 -24 112 -11 60 -23 113
-25 117 -4 5 -149 -39 -216 -67 -13 -5 -18 -2 -18 11 -1 66 -187 514 -213 514
-36 0 -408 -288 -436 -338 -9 -15 -14 -12 -43 23 -18 22 -55 64 -83 93 l-50
53 -70 -81 c-38 -44 -72 -86 -76 -92 -5 -8 -34 13 -86 63 -110 105 -344 279
-375 279 -5 0 -38 -60 -73 -132z m172 11 c119 -81 313 -249 313 -273 0 -5 -21
-40 -47 -78 l-47 -69 -75 74 c-83 80 -138 127 -151 127 -15 0 -52 -102 -90
-247 l-11 -42 -79 40 c-93 46 -91 27 -29 211 38 115 122 308 134 308 3 0 40
-23 82 -51z m1148 -31 c67 -147 135 -342 135 -387 0 -10 -129 -81 -147 -81 -5
0 -18 37 -31 83 -31 110 -65 197 -77 197 -14 0 -131 -101 -181 -157 l-42 -45
-50 74 -51 75 67 65 c37 35 92 85 122 110 60 50 199 148 210 148 4 0 24 -37
45 -82z m-561 -180 c136 -163 255 -367 304 -518 43 -132 54 -202 54 -335 0
-145 -13 -222 -63 -359 l-32 -89 -19 51 c-10 28 -33 63 -50 77 l-31 26 23 67
c58 173 33 352 -82 601 -41 89 -163 281 -178 281 -15 0 -105 -133 -153 -228
-60 -115 -103 -226 -123 -313 -22 -99 -15 -261 15 -346 l23 -63 -31 -25 c-16
-14 -38 -48 -49 -76 l-18 -50 -13 28 c-154 331 -107 718 132 1081 65 99 202
272 216 272 4 0 38 -37 75 -82z m-479 -171 l84 -83 -38 -75 c-21 -41 -40 -81
-42 -88 -3 -9 -30 3 -84 39 -44 28 -82 53 -84 55 -10 10 58 235 71 235 5 0 47
-37 93 -83z m939 -21 c14 -48 26 -98 26 -110 0 -16 -20 -36 -76 -74 -42 -29
-78 -51 -79 -50 -2 2 -22 41 -45 87 l-42 85 86 85 c52 51 90 81 96 75 5 -5 20
-49 34 -98z m-1448 -31 c144 -52 276 -117 387 -191 84 -57 98 -69 93 -88 -4
-11 -14 -50 -23 -86 -9 -36 -17 -66 -19 -68 -1 -2 -33 19 -71 46 -140 100
-317 192 -335 174 -14 -14 -21 -273 -10 -367 5 -44 8 -81 7 -83 -1 -2 -41 7
-88 19 l-86 21 -7 55 c-18 145 20 603 50 603 3 0 49 -16 102 -35z m1948 -52
c28 -157 39 -294 33 -427 -4 -71 -10 -133 -15 -138 -7 -7 -144 -47 -163 -48
-3 0 -4 78 -1 174 3 95 1 199 -2 230 -7 52 -9 56 -29 50 -70 -20 -235 -115
-367 -212 -15 -11 -19 -5 -39 72 -13 47 -20 90 -16 97 13 20 189 130 275 171
89 43 277 117 296 118 7 0 19 -37 28 -87z m-987 -70 c176 -289 230 -531 161
-722 -21 -57 -27 -64 -61 -76 -51 -18 -99 -56 -122 -99 -11 -20 -22 -36 -25
-36 -3 0 -14 16 -25 36 -23 43 -71 81 -122 99 -33 11 -41 21 -63 71 -22 52
-25 73 -25 184 0 115 3 133 33 218 18 51 51 133 75 181 43 87 117 211 127 211
3 0 24 -30 47 -67z m-1497 2 c119 -14 171 -24 277 -51 l62 -17 -5 -46 c-3 -25
-7 -65 -10 -87 l-5 -42 -87 24 c-47 13 -115 27 -150 30 l-63 7 7 -44 c4 -24
18 -92 33 -150 l26 -107 -84 -6 c-46 -4 -87 -4 -91 1 -21 24 -68 269 -77 406
l-6 97 29 0 c16 0 81 -7 144 -15z m3070 -4 c0 -92 -35 -316 -67 -434 l-16 -59
-86 7 c-47 4 -87 8 -88 9 -1 1 9 42 22 91 14 49 28 117 31 151 l6 61 -58 -9
c-60 -9 -195 -41 -226 -53 -15 -6 -18 -2 -18 22 0 17 -3 57 -6 90 l-7 61 54
15 c117 33 302 63 412 66 40 1 47 -2 47 -18z m-2265 -259 c39 -24 89 -60 113
-80 l42 -34 0 -122 c0 -109 19 -242 45 -328 6 -17 -8 -7 -51 36 -73 72 -159
134 -255 185 -69 35 -75 41 -81 77 -12 69 -21 279 -14 327 l7 47 62 -31 c34
-18 94 -52 132 -77z m1482 -81 c-4 -97 -9 -188 -12 -202 -5 -18 -21 -33 -53
-48 -76 -37 -202 -125 -269 -188 -35 -32 -63 -58 -63 -56 0 1 10 39 21 85 16
62 22 121 24 233 l3 150 92 66 c103 74 239 151 253 142 6 -3 7 -79 4 -182z
m498 -28 c-14 -54 -29 -101 -33 -104 -4 -4 -49 -9 -99 -13 l-92 -6 6 98 c3 53
7 98 8 100 1 1 54 16 116 32 137 34 133 38 94 -107z m-2547 97 c76 -21 82 -24
83 -49 0 -14 3 -58 7 -98 l8 -72 -96 6 c-52 3 -96 6 -97 7 -4 3 -50 171 -57
205 l-6 34 37 -5 c21 -3 75 -16 121 -28z m62 -270 c222 -27 409 -106 565 -237
66 -56 185 -187 185 -204 0 -5 -12 -4 -26 1 -33 13 -86 13 -120 0 -26 -10 -31
-7 -83 49 -31 32 -84 77 -118 99 -76 48 -227 97 -345 113 -94 12 -411 9 -424
-4 -12 -12 99 -223 171 -322 150 -209 314 -328 484 -351 47 -6 51 -9 51 -33 0
-28 28 -80 64 -120 20 -23 20 -23 1 -18 -11 3 -42 8 -70 12 -77 10 -212 53
-300 96 -216 106 -398 306 -529 580 -48 100 -116 270 -116 290 0 8 148 36 255
48 104 12 259 12 355 1z m2784 -19 c66 -12 121 -23 123 -25 7 -7 -69 -204
-117 -302 -101 -208 -260 -404 -408 -503 -129 -86 -309 -155 -459 -174 l-41
-5 34 45 c19 24 37 61 40 82 6 37 6 37 72 49 39 6 102 29 152 53 154 75 333
283 447 516 25 51 42 97 38 101 -3 4 -83 9 -176 10 -346 7 -558 -58 -711 -220
l-57 -60 -36 12 c-35 12 -91 9 -131 -7 -27 -10 15 46 105 140 158 166 375 272
626 306 107 15 362 5 499 -18z m-2711 -216 c185 -28 307 -85 408 -192 55 -60
58 -64 47 -94 -17 -49 -4 -117 40 -201 2 -5 -18 -8 -45 -8 -54 0 -118 -26
-147 -59 -22 -25 -51 -26 -126 -6 -184 49 -360 218 -513 496 -21 36 -37 69
-37 72 0 13 276 7 373 -8z m2517 5 c0 -20 -59 -127 -118 -216 -144 -214 -306
-337 -477 -360 -38 -6 -48 -3 -82 24 -45 35 -92 52 -145 52 -22 0 -38 3 -36 8
42 81 56 169 34 215 -6 13 7 32 65 90 145 143 303 193 622 196 88 1 137 -3
137 -9z m-3135 -126 c40 -88 41 -94 17 -94 -23 0 -209 -58 -245 -77 l-28 -14
33 -42 c18 -23 64 -75 102 -115 38 -40 67 -74 65 -75 -2 -2 -34 -24 -71 -50
l-67 -46 -75 77 c-101 103 -246 293 -246 321 0 25 305 147 477 190 1 1 18 -33
38 -75z m3600 22 c106 -36 305 -124 305 -136 0 -9 -95 -146 -143 -205 -22 -27
-72 -82 -110 -122 l-70 -71 -73 51 -73 50 43 38 c49 43 156 171 156 186 0 13
-150 68 -230 85 -33 6 -59 15 -57 18 2 3 18 38 37 78 l34 74 40 -7 c23 -3 86
-21 141 -39z m-2020 8 c28 -18 85 -108 85 -135 0 -12 -13 -18 -51 -23 -28 -4
-80 -18 -117 -31 -73 -26 -80 -24 -83 30 -8 153 66 224 166 159z m352 4 c27
-22 43 -74 43 -135 0 -82 -5 -87 -67 -63 -28 10 -81 25 -117 31 -42 8 -66 17
-66 26 0 33 46 107 84 135 32 23 48 29 74 24 19 -3 41 -11 49 -18z m-664 -169
c22 -6 55 -26 75 -45 l37 -34 -30 -22 c-38 -28 -107 -96 -128 -127 l-17 -25
-25 24 c-35 33 -65 99 -65 144 0 28 7 45 29 67 32 32 61 36 124 18z m978 -15
c44 -40 32 -135 -26 -200 l-34 -39 -28 35 c-34 44 -79 89 -118 119 l-30 23 37
33 c21 17 53 37 70 43 43 14 105 8 129 -14z m-2123 -66 c29 -44 52 -81 50 -82
-2 0 -41 -20 -88 -42 l-85 -41 -46 41 c-25 22 -65 62 -88 88 l-43 48 28 11
c29 10 205 58 214 58 3 0 29 -37 58 -81z m3332 45 c47 -13 89 -28 94 -33 6 -6
-24 -43 -75 -95 l-84 -86 -75 39 c-41 21 -81 41 -89 43 -10 4 1 27 40 86 61
92 42 88 189 46z m-1641 -18 c247 -59 425 -296 408 -545 -22 -338 -343 -569
-667 -479 -179 49 -303 170 -365 352 -68 205 6 442 180 572 140 104 286 137
444 100z m-1536 -222 l59 -62 -54 -22 c-107 -46 -246 -127 -332 -194 -20 -15
-20 -15 0 -30 89 -71 242 -159 343 -199 l45 -17 -67 -67 -66 -66 -83 39 c-146
71 -371 226 -442 304 -19 21 -19 22 5 47 32 34 198 160 274 209 74 47 236 127
250 123 5 -2 36 -31 68 -65z m3020 14 c57 -30 131 -73 166 -96 84 -57 261
-200 261 -211 0 -12 -192 -165 -274 -218 -77 -50 -219 -126 -255 -137 -20 -6
-33 3 -87 56 l-63 62 127 63 c125 61 272 155 272 174 0 19 -147 113 -270 173
l-125 61 60 63 c33 34 66 62 73 62 6 1 58 -23 115 -52z m-2170 -27 c45 0 48
-12 22 -82 -13 -37 -27 -89 -31 -117 -8 -61 -17 -63 -90 -21 -130 74 -122 193
16 221 19 4 41 5 48 3 8 -2 23 -4 35 -4z m1266 -19 c89 -46 74 -140 -33 -202
-73 -41 -82 -39 -90 22 -4 28 -18 81 -32 117 -29 77 -26 82 59 82 38 0 71 -7
96 -19z m-1928 -118 c77 -49 200 -103 289 -127 30 -8 48 -16 40 -19 -8 -3 -53
-17 -100 -32 -97 -31 -171 -67 -249 -120 -42 -27 -61 -35 -80 -30 -80 20 -345
167 -339 187 9 26 315 188 355 188 7 0 45 -21 84 -47z m2626 13 c102 -44 273
-142 273 -156 0 -16 -249 -151 -331 -180 -36 -13 -39 -12 -109 33 -82 52 -195
102 -290 128 -36 9 -58 19 -50 22 8 3 49 15 89 27 79 23 222 91 281 134 19 14
40 25 47 26 6 0 47 -15 90 -34z m-2161 -227 c-20 -24 -39 -59 -43 -82 l-8 -41
-70 -13 c-193 -35 -379 -195 -536 -460 -56 -95 -103 -202 -94 -212 12 -12 320
-13 410 -1 213 27 337 82 456 200 71 70 78 74 100 63 29 -15 72 -16 117 -4 17
5 32 7 32 3 0 -21 -150 -178 -220 -231 -266 -200 -585 -260 -1012 -190 -67 11
-124 21 -126 24 -11 11 94 272 150 373 133 239 320 424 521 517 83 38 161 62
261 80 102 19 101 19 62 -26z m187 -7 c5 -42 25 -109 52 -174 5 -13 -1 -18
-30 -24 -55 -10 -133 1 -163 23 -72 54 -43 151 61 202 64 32 73 29 80 -27z
m1222 29 c118 -55 146 -177 48 -217 -40 -17 -149 -22 -164 -7 -5 5 -1 30 11
60 10 28 25 81 31 117 7 36 17 66 23 66 6 0 29 -9 51 -19z m334 -37 c277 -93
493 -296 653 -616 50 -101 132 -308 124 -315 -12 -13 -253 -45 -372 -50 -301
-13 -561 58 -754 205 -65 49 -211 197 -230 233 -10 17 -8 18 15 9 35 -13 98
-13 128 1 23 10 30 5 98 -63 126 -126 278 -186 531 -208 114 -10 271 -6 326 9
23 6 23 6 -23 101 -59 122 -160 271 -242 360 -108 117 -246 195 -379 216 -39
6 -42 9 -48 43 -3 21 -20 54 -41 78 -19 23 -35 43 -35 46 0 10 177 -25 249
-49z m1055 -264 c68 -81 176 -229 176 -240 0 -19 -272 -131 -412 -170 l-68
-19 -40 80 c-29 56 -37 81 -28 84 7 2 47 13 89 24 96 25 189 60 189 70 0 15
-42 64 -122 146 l-78 81 72 51 73 51 43 -41 c24 -23 72 -76 106 -117z m-3845
103 l70 -47 -63 -61 c-34 -33 -81 -85 -105 -115 l-42 -53 56 -24 c31 -13 93
-33 138 -45 45 -12 86 -24 90 -28 5 -4 -9 -41 -29 -83 -44 -88 -25 -86 -204
-27 -125 41 -310 123 -310 138 0 12 94 147 148 212 58 70 164 180 174 180 4 0
39 -21 77 -47z m1047 -32 c37 -33 89 -51 146 -51 l38 0 -23 -42 c-18 -35 -22
-59 -21 -128 l0 -85 -62 -63 c-99 -99 -238 -158 -434 -182 -92 -11 -313 -14
-323 -4 -20 21 148 278 254 389 86 89 160 139 258 172 91 31 126 30 167 -6z
m1657 13 c170 -44 302 -156 449 -384 59 -90 98 -162 98 -180 0 -15 -258 -12
-370 5 -194 29 -358 113 -432 221 -25 36 -26 42 -16 80 11 40 0 93 -36 177 -7
15 -2 17 40 17 54 0 119 26 148 59 23 25 39 26 119 5z m-1304 -145 c26 -25 57
-53 70 -62 21 -14 22 -18 11 -32 -29 -35 -102 -69 -152 -69 -42 -1 -53 3 -74
27 -40 47 -28 126 33 205 l26 35 21 -29 c11 -16 40 -50 65 -75z m947 39 c38
-56 48 -109 29 -154 -16 -38 -41 -54 -87 -54 -37 0 -126 40 -152 69 -15 17
-13 20 42 63 33 25 72 64 88 87 16 22 34 39 39 38 6 -2 24 -24 41 -49z m1243
-33 c44 -46 81 -89 81 -94 0 -5 -10 -11 -22 -14 -13 -3 -54 -14 -93 -25 -131
-37 -115 -42 -175 50 -40 61 -50 83 -39 87 8 2 46 21 84 42 39 20 73 37 76 38
3 1 43 -37 88 -84z m-3379 35 l79 -40 -55 -80 c-30 -44 -58 -80 -62 -80 -6 0
-157 42 -204 57 -10 3 -18 10 -18 15 0 16 152 168 167 168 7 0 49 -18 93 -40z
m1401 -175 c37 -13 91 -27 118 -31 28 -4 51 -10 51 -14 0 -4 -7 -23 -15 -43
-28 -68 -95 -127 -144 -127 -35 0 -78 46 -91 99 -10 45 -6 141 7 141 3 0 36
-11 74 -25z m473 3 c12 -45 6 -113 -14 -154 -48 -99 -153 -76 -214 48 -14 28
-23 54 -21 58 3 4 28 11 57 15 29 3 80 17 113 30 76 29 72 29 79 3z m-550
-228 l33 -33 -18 -53 c-65 -183 -36 -382 92 -638 51 -102 145 -247 164 -253
17 -5 130 173 184 288 115 245 137 413 79 587 l-24 72 23 15 c24 16 63 83 63
109 0 42 21 17 48 -56 51 -143 65 -234 59 -398 -7 -197 -51 -349 -158 -535
-55 -96 -198 -292 -247 -338 l-30 -28 -73 88 c-139 169 -255 369 -309 533 -74
227 -62 504 30 715 l22 50 14 -46 c8 -26 28 -60 48 -79z m328 24 c24 -27 66
-51 119 -67 9 -3 26 -36 40 -79 18 -57 23 -94 23 -168 -1 -111 -19 -186 -76
-320 -39 -93 -139 -273 -157 -285 -28 -17 -197 329 -227 464 -22 99 -15 254
15 332 19 51 25 58 57 64 38 7 104 61 132 107 l17 29 15 -23 c8 -12 27 -36 42
-54z m-501 -47 c-26 -67 -42 -188 -42 -311 l0 -131 -75 -55 c-71 -52 -250
-160 -265 -160 -23 0 -16 344 8 406 3 8 33 29 67 46 88 44 193 119 255 182 30
31 56 54 58 52 2 -2 -1 -15 -6 -29z m1088 -141 c36 -24 91 -56 123 -72 41 -20
58 -34 62 -53 9 -39 20 -357 13 -375 -6 -15 -13 -13 -59 10 -61 30 -205 123
-260 166 l-37 29 6 78 c7 90 -11 249 -37 333 l-18 58 70 -65 c39 -36 101 -85
137 -109z m-1531 -246 c-11 -124 -5 -303 12 -330 14 -23 209 77 343 178 33 24
60 42 61 40 1 -2 10 -34 20 -73 10 -38 20 -77 23 -87 11 -37 -266 -197 -475
-273 -56 -21 -105 -35 -109 -31 -30 30 -64 443 -49 589 7 62 10 67 34 73 15 3
54 14 87 23 33 10 61 17 62 17 1 -1 -3 -58 -9 -126z m1879 94 c34 -9 64 -23
67 -31 14 -35 18 -255 7 -358 -16 -147 -41 -285 -52 -285 -21 0 -209 75 -304
121 -55 26 -134 70 -175 98 -119 81 -112 71 -95 122 8 24 19 63 25 86 l11 43
92 -64 c86 -60 245 -147 294 -161 20 -5 22 -1 29 51 3 31 4 135 2 231 -5 173
-5 174 16 169 12 -4 49 -13 83 -22z m-2416 -30 l65 -7 -27 -106 c-14 -58 -29
-127 -33 -153 l-6 -48 48 7 c26 3 88 16 137 28 50 13 97 25 105 26 12 3 16
-13 21 -81 4 -47 5 -87 4 -88 -7 -8 -153 -43 -234 -57 -47 -8 -128 -17 -178
-21 l-93 -7 0 49 c1 99 39 332 71 432 12 35 13 36 120 26z m316 -8 c-3 -8 -7
-51 -8 -96 -1 -66 -5 -83 -20 -90 -23 -13 -212 -59 -220 -54 -7 4 9 89 36 181
l17 62 67 4 c36 2 81 4 100 5 25 2 32 -1 28 -12z m2415 -5 c11 -10 47 -138 54
-190 l6 -49 -68 14 c-38 8 -93 22 -121 31 l-53 17 0 45 c0 25 -3 69 -6 98 l-7
52 94 -6 c52 -3 97 -8 101 -12z m257 -58 c24 -91 47 -233 57 -350 l7 -83 -49
0 c-107 1 -433 58 -457 80 -5 4 -6 46 -2 92 l7 83 106 -26 c59 -15 127 -29
152 -30 l45 -4 -4 40 c-2 34 -38 188 -56 246 -5 16 2 18 57 22 35 2 75 4 89 5
25 2 28 -3 48 -75z m-1926 -416 c20 -45 37 -87 37 -93 0 -13 -155 -164 -168
-164 -10 0 -44 103 -62 184 -9 41 -8 51 4 58 7 4 43 28 77 52 35 24 66 44 69
44 3 1 22 -36 43 -81z m880 12 c37 -25 47 -36 46 -57 -1 -42 -53 -207 -65
-207 -12 0 -71 53 -137 122 l-39 41 42 86 42 87 32 -21 c17 -12 52 -35 79 -51z
m-1107 -162 c25 -94 62 -187 74 -187 14 0 64 43 146 122 l80 79 47 -70 c26
-39 47 -74 47 -79 0 -29 -356 -322 -392 -322 -14 0 -96 183 -138 310 -60 182
-62 164 22 204 40 19 77 33 82 32 5 -1 20 -41 32 -89z m1294 58 c39 -19 70
-41 70 -48 0 -66 -158 -467 -184 -467 -29 0 -291 212 -374 302 l-23 25 47 69
c26 38 49 71 50 73 2 2 18 -14 36 -35 49 -56 191 -175 199 -166 10 10 64 169
79 230 6 28 16 52 21 52 5 0 41 -16 79 -35z"/>
<path d="M6291 3624 c-170 -46 -296 -187 -324 -363 -35 -231 125 -449 362
-492 136 -24 267 18 372 117 71 69 113 149 130 251 50 301 -245 567 -540 487z
m245 -65 c130 -49 218 -158 245 -304 27 -147 -59 -319 -198 -393 -196 -104
-428 -29 -527 169 -56 111 -57 223 -4 337 83 176 298 260 484 191z"/>
<path d="M6313 3496 c-89 -29 -158 -89 -195 -171 -31 -68 -32 -180 -1 -246 71
-157 253 -228 403 -158 79 37 115 72 151 145 27 54 32 76 32 135 0 94 -45 186
-116 240 -78 59 -193 82 -274 55z"/>
<path d="M8390 5382 c-167 -84 -43 -336 126 -256 106 51 107 202 0 253 -52 26
-80 26 -126 3z"/>
<path d="M8874 4811 c-46 -12 -81 -41 -105 -89 -53 -108 23 -232 143 -232 110
0 184 88 164 195 -7 35 -54 98 -85 114 -26 14 -84 19 -117 12z"/>
<path d="M2324 4181 c-61 -37 -62 -58 -13 -292 24 -115 46 -209 49 -209 7 0
130 391 130 414 0 30 -29 75 -60 91 -39 20 -68 19 -106 -4z"/>
<path d="M10368 4184 c-29 -15 -58 -61 -58 -90 0 -23 123 -414 130 -414 3 0
25 94 49 209 40 188 43 213 31 241 -25 60 -96 85 -152 54z"/>
<path d="M9158 4130 c-45 -14 -83 -41 -108 -78 -21 -29 -25 -48 -25 -103 0
-60 3 -71 31 -106 45 -56 87 -75 160 -71 74 5 126 38 155 102 36 79 20 157
-44 213 -52 45 -111 61 -169 43z"/>
<path d="M1913 4090 c-46 -28 -62 -86 -37 -134 21 -38 277 -328 282 -317 1 3
-18 98 -42 211 -42 191 -47 207 -75 232 -38 34 -82 36 -128 8z"/>
<path d="M10759 4082 c-28 -25 -33 -41 -75 -232 -24 -113 -43 -208 -42 -211 5
-11 261 279 282 317 54 101 -79 203 -165 126z"/>
<path d="M2740 4063 c-43 -17 -61 -52 -126 -245 -36 -110 -64 -201 -63 -203 7
-6 296 259 313 287 40 65 0 154 -74 163 -19 2 -42 2 -50 -2z"/>
<path d="M9984 4061 c-57 -25 -81 -105 -48 -159 17 -28 306 -293 313 -287 1 2
-27 93 -63 203 -46 136 -74 206 -90 221 -26 25 -81 35 -112 22z"/>
<path d="M9241 3395 c-84 -26 -141 -105 -141 -195 0 -173 201 -268 335 -158
128 106 81 316 -81 357 -52 13 -58 13 -113 -4z"/>
<path d="M175 2691 c-54 -23 -79 -95 -51 -149 21 -40 37 -49 165 -82 58 -16
149 -40 201 -54 l95 -26 -145 146 c-80 80 -157 152 -172 160 -30 15 -62 17
-93 5z"/>
<path d="M12525 2682 c-16 -11 -93 -83 -170 -161 l-139 -141 94 26 c52 14 144
38 203 54 124 33 149 46 167 89 39 96 -69 189 -155 133z"/>
<path d="M63 2286 c-62 -28 -82 -112 -38 -164 43 -51 67 -50 291 9 112 30 200
57 196 60 -8 8 -329 94 -382 103 -21 4 -48 0 -67 -8z"/>
<path d="M12665 2295 c-5 -2 -91 -24 -190 -50 -99 -26 -183 -50 -187 -54 -13
-12 396 -114 429 -107 66 15 100 93 68 155 -21 41 -81 69 -120 56z"/>
<path d="M430 1959 c-276 -75 -279 -77 -300 -112 -31 -50 -26 -93 15 -134 33
-33 39 -35 82 -30 44 5 53 12 202 161 86 86 154 156 151 155 -3 0 -70 -18
-150 -40z"/>
<path d="M12371 1844 c149 -149 158 -156 202 -161 43 -5 49 -3 82 30 25 25 35
44 35 66 0 38 -23 87 -48 100 -15 8 -193 59 -392 111 -31 9 -17 -8 121 -146z"/>
<path d="M3799 1887 c-78 -53 -101 -140 -57 -219 87 -155 329 -73 305 104 -6
45 -46 102 -87 123 -44 23 -121 19 -161 -8z"/>
<path d="M4273 1270 c-90 -55 -95 -181 -10 -242 69 -49 181 -18 213 58 54 130
-85 256 -203 184z"/>
<path d="M2038 961 c-86 -77 -158 -147 -162 -156 -10 -28 -7 -75 8 -104 27
-51 112 -68 159 -31 21 16 40 63 92 221 37 111 64 203 62 205 -2 3 -74 -58
-159 -135z"/>
<path d="M10600 1095 c0 -4 29 -97 66 -206 51 -156 70 -203 91 -219 47 -37
132 -20 159 31 15 29 18 76 8 103 -3 9 -70 73 -148 143 -159 144 -176 158
-176 148z"/>
<path d="M2595 1058 c3 -13 23 -106 45 -208 36 -171 41 -187 70 -212 45 -41
101 -39 146 6 38 38 43 73 19 119 -13 26 -271 317 -281 317 -2 0 -2 -10 1 -22z"/>
<path d="M10066 930 c-173 -191 -186 -222 -122 -286 45 -45 101 -47 146 -6 29
25 34 41 75 232 24 112 42 206 40 208 -1 2 -64 -65 -139 -148z"/>
<path d="M2326 840 c-62 -188 -67 -208 -57 -242 15 -49 53 -78 103 -78 32 0
47 7 74 34 21 21 34 44 34 59 0 22 -73 390 -84 422 -2 6 -33 -82 -70 -195z"/>
<path d="M10362 838 c-23 -112 -42 -214 -42 -227 0 -13 15 -38 34 -57 27 -27
42 -34 74 -34 50 0 88 29 102 78 10 34 5 55 -55 240 -36 111 -67 202 -69 202
-1 0 -21 -91 -44 -202z"/>
<path d="M4882 790 c-127 -78 -27 -274 111 -216 69 28 96 110 57 173 -37 61
-108 79 -168 43z"/>
<path d="M5594 481 c-67 -41 -63 -140 6 -176 100 -51 197 73 123 155 -36 40
-86 48 -129 21z"/>
<path d="M6363 370 c-37 -15 -54 -69 -37 -115 7 -17 54 -45 78 -45 8 0 28 12
45 26 48 40 41 102 -16 132 -25 14 -40 14 -70 2z"/>
</g>
</svg>
